<svg width="40" height="40" viewBox="0 0 40 40" fill="none" xmlns="http://www.w3.org/2000/svg">
<g id="1">
<g id="Group 1">
<path id="Vector 1" d="M5 7L7.5 9H9.5L9 11.5" stroke="black" stroke-linecap="round"/>
<path id="Vector 2" d="M12.5 3L12 4.5L13.5 6L13 7.5L13.5 8.5" stroke="black" stroke-linecap="round"/>
<path id="Vector 3" d="M15.5 3L17.5 6.5" stroke="black" stroke-linecap="round"/>
<path id="Vector 4" d="M23 3L24 4.5L22.5 5L21 6.5" stroke="black" stroke-linecap="round"/>
<path id="Vector 6" d="M27 13H28V11L29.5 12L31 11L31.5 12L33 11L34.5 12" stroke="black" stroke-linecap="round"/>
<path id="Vector 7" d="M33.5 18.5L30 17.5" stroke="black" stroke-linecap="round"/>
<path id="Vector 8" d="M5.5 14.5L9.5 15.5" stroke="black" stroke-linecap="round"/>
<path id="Vector 9" d="M7 19.5C8.2 19.9 8.5 19.3333 8.5 19V18L10 18.5L10.5 17L12 17.5" stroke="black" stroke-linecap="round"/>
<path id="Vector 15" d="M12.5 25C9.17777 27.3325 8.07337 28.7563 7.5 31.5V36.5H11.5V31.5" stroke="black" stroke-linecap="round"/>
<path id="Vector 13" d="M25.0001 20C24.4134 23.794 23.5145 25.3156 20.0001 26C17.949 26.1272 16.8469 25.7557 15.0001 24C14.0902 22.5512 13.9253 21.6636 14.0001 20" stroke="black" stroke-linecap="round"/>
<path id="Vector 16" d="M15.9998 19.5C13.8314 20.4903 13.1176 20.01 12.4998 17C12.2184 10.9128 17.6423 8.74814 21.4998 9.49996" stroke="black" stroke-linecap="round"/>
<path id="Vector 17" d="M21 10.0001C23.0192 9.19261 23.9735 9.42035 25.5 10.5001L27.5 9L28 6.5H29L32 4" stroke="black" stroke-linecap="round"/>
<path id="Vector 18" d="M25 22C27.4587 21.6619 27.4881 20.174 27 17" stroke="black" stroke-linecap="round"/>
<path id="Vector 20" d="M16 19.5C17.1106 19.1556 17.8963 18.8288 18.5 18.3999C19.1525 17.9364 19.5923 17.3535 20 16.5" stroke="black" stroke-linecap="round"/>
<path id="Vector 21" d="M24 23.5L26.5 25C29.9841 26.8996 31.3587 28.326 32 32V36H28V32" stroke="black" stroke-linecap="round"/>
<path id="Vector 22" d="M12.5 25L13.5 24.6L15 24" stroke="black" stroke-linecap="round"/>
<path id="Vector 24" d="M13.5 25C17.084 29.2914 19.6546 29.9103 23.5 27.3593C24.4171 26.7509 26.5 25 26.5 25" stroke="black" stroke-linecap="round"/>
<path id="Vector 25" d="M23 17L22.5 17.5M22.5 17.5C22.6915 19.8586 23.4074 20.3641 26 19.5M22.5 17.5C20.4594 17.1145 19.6363 16.5239 19 14.5" stroke="black" stroke-linecap="round"/>
</g>
</g>
</svg>
