<svg width="40" height="46" viewBox="0 0 40 46" fill="none" xmlns="http://www.w3.org/2000/svg">
<g id="2">
<g id="Group 106">
<circle id="Ellipse 212" cx="8.5" cy="14.8063" r="4" stroke="black"/>
<circle id="Ellipse 213" cx="32.5" cy="14.8063" r="4" stroke="black"/>
<circle id="Ellipse 214" cx="32.5" cy="31.8063" r="4" stroke="black"/>
<path id="Vector 62" d="M15 12.8063H25" stroke="black" stroke-linecap="round"/>
<path id="Vector 64" d="M10 20.4059H9.5V21.4059H10V20.4059ZM16 21.4059C16.2761 21.4059 16.5 21.182 16.5 20.9059C16.5 20.6297 16.2761 20.4059 16 20.4059V21.4059ZM10 21.4059H16V20.4059H10V21.4059Z" fill="black"/>
<path id="Vector 75" d="M20 23.3063L21 19.3063" stroke="black" stroke-linecap="round"/>
<path id="Vector 65" d="M27.3 25.3063H31.3" stroke="black" stroke-linecap="round"/>
<path id="Vector 66" d="M25 21.3063H30" stroke="black" stroke-linecap="round"/>
<path id="Vector 68" d="M13 29.3063H20" stroke="black" stroke-linecap="round"/>
<path id="Vector 69" d="M11 25.3063H17" stroke="black" stroke-linecap="square"/>
<path id="Vector 67" d="M23 17.3063H29" stroke="black" stroke-linecap="round"/>
<path id="Vector 63" d="M15 34.3063H25" stroke="black" stroke-linecap="round"/>
<path id="Vector 70" d="M5.5 29.8063C5.83333 29.1396 6.9 27.9063 8.5 28.3063" stroke="black" stroke-linecap="round"/>
<path id="Vector 71" d="M5.5 29.8063C5.83333 29.1396 6.9 27.9063 8.5 28.3063" stroke="black" stroke-linecap="round"/>
<path id="Vector 73" d="M20.4484 23.5274C20.5706 23.2798 20.4688 22.98 20.2211 22.8578C19.9735 22.7357 19.6737 22.8375 19.5516 23.0851L20.4484 23.5274ZM18.0001 24.8063L17.5001 24.8062L17.4999 25.8062L17.9999 25.8063L18.0001 24.8063ZM19.5516 23.0851C19.4343 23.3229 19.3808 23.6047 19.3392 23.7994C19.2914 24.0228 19.2499 24.1924 19.178 24.3357C19.1137 24.464 19.0263 24.5674 18.876 24.6467C18.7153 24.7315 18.4488 24.8063 18.0001 24.8063L17.9999 25.8063C18.5512 25.8063 18.993 25.7157 19.3427 25.5311C19.7028 25.3411 19.9279 25.0712 20.072 24.7839C20.2084 24.5117 20.2711 24.2235 20.3171 24.0085C20.3692 23.7648 20.399 23.6276 20.4484 23.5274L19.5516 23.0851Z" fill="black"/>
<path id="Vector 74" d="M20.5516 19.0851C20.4294 19.3328 20.5312 19.6326 20.7789 19.7547C21.0265 19.8768 21.3263 19.7751 21.4484 19.5274L20.5516 19.0851ZM22.9999 17.8063L23.4999 17.8063L23.5001 16.8063L23.0001 16.8063L22.9999 17.8063ZM21.4484 19.5274C21.5657 19.2897 21.6192 19.0078 21.6608 18.8132C21.7086 18.5897 21.7501 18.4201 21.822 18.2768C21.8863 18.1486 21.9737 18.0452 22.124 17.9658C22.2847 17.881 22.5512 17.8062 22.9999 17.8063L23.0001 16.8063C22.4488 16.8062 22.007 16.8969 21.6573 17.0814C21.2972 17.2715 21.0721 17.5414 20.928 17.8286C20.7916 18.1009 20.7289 18.3891 20.6829 18.604C20.6308 18.8478 20.601 18.9849 20.5516 19.0851L21.4484 19.5274Z" fill="black"/>
<path id="Vector 76" d="M22 27.3063L23 23.3063" stroke="black" stroke-linecap="round"/>
<path id="Vector 77" d="M22.4484 27.5274C22.5706 27.2798 22.4688 26.98 22.2211 26.8578C21.9735 26.7357 21.6737 26.8375 21.5516 27.0851L22.4484 27.5274ZM20.0001 28.8063L19.5001 28.8062L19.4999 29.8062L19.9999 29.8063L20.0001 28.8063ZM21.5516 27.0851C21.4343 27.3229 21.3808 27.6047 21.3392 27.7994C21.2914 28.0228 21.2499 28.1924 21.178 28.3357C21.1137 28.464 21.0263 28.5674 20.876 28.6467C20.7153 28.7315 20.4488 28.8063 20.0001 28.8063L19.9999 29.8063C20.5512 29.8063 20.993 29.7157 21.3427 29.5311C21.7028 29.3411 21.9279 29.0712 22.072 28.7839C22.2084 28.5117 22.2711 28.2235 22.3171 28.0085C22.3692 27.7648 22.399 27.6276 22.4484 27.5274L21.5516 27.0851Z" fill="black"/>
<path id="Vector 78" d="M22.5516 23.0851C22.4294 23.3328 22.5312 23.6326 22.7789 23.7547C23.0265 23.8768 23.3263 23.7751 23.4484 23.5274L22.5516 23.0851ZM24.9999 21.8063L25.4999 21.8063L25.5001 20.8063L25.0001 20.8063L24.9999 21.8063ZM23.4484 23.5274C23.5657 23.2897 23.6192 23.0078 23.6608 22.8132C23.7086 22.5897 23.7501 22.4201 23.822 22.2768C23.8863 22.1486 23.9737 22.0452 24.124 21.9658C24.2847 21.881 24.5512 21.8062 24.9999 21.8063L25.0001 20.8063C24.4488 20.8062 24.007 20.8969 23.6573 21.0814C23.2972 21.2715 23.0721 21.5414 22.928 21.8286C22.7916 22.1009 22.7289 22.3891 22.6829 22.604C22.6308 22.8478 22.601 22.9849 22.5516 23.0851L23.4484 23.5274Z" fill="black"/>
<path id="Vector 72" d="M8.5 28.3063C8.5 26.8063 9 25.5771 11 25.3063" stroke="black" stroke-linecap="round"/>
<path id="Vector 79" d="M32.2482 19.5687C32.1285 20.5615 31.6333 21.3272 30.0232 21.3149" stroke="black" stroke-linecap="square"/>
<path id="Vector 81" d="M32.6339 26.9314C32.6434 26.1286 32.3243 25.4669 31.0188 25.3065M32.6339 26.9314C32.6434 26.1286 32.3243 25.4669 31.0188 25.3065" stroke="black" stroke-linecap="round"/>
<path id="Vector 82" d="M8.01893 19.3062C8.00947 20.1089 8.32851 20.7706 9.63402 20.931" stroke="black" stroke-linecap="round"/>
<path id="Vector 80" d="M5.00018 32.3063C4.83351 33.3063 5.70024 35.3063 8.50024 35.3063C9.1387 35.3063 10.0901 35.0128 10.86 33.9761C11.382 33.2731 11.3919 32.3465 11.4522 31.4729C11.5259 30.406 11.9017 29.3063 13.0001 29.3063" stroke="black" stroke-linecap="round"/>
</g>
</g>
</svg>
