<svg width="40" height="41" viewBox="0 0 40 41" fill="none" xmlns="http://www.w3.org/2000/svg">
<g id="3" clip-path="url(#clip0_507_2918)">
<g id="Group 104">
<path id="Vector 14" d="M37.6544 27H2.17725" stroke="black" stroke-width="0.938272"/>
<path id="Vector 15" d="M9.97534 36.8518H23.5803" stroke="black" stroke-width="0.938272" stroke-linecap="round"/>
<path id="Vector 16" d="M7.62964 28.8765V34.9752" stroke="black" stroke-width="0.938272" stroke-linecap="round"/>
<path id="Vector 26" d="M9.97534 28.8765V34.9752" stroke="black" stroke-width="0.938272" stroke-linecap="round"/>
<path id="Vector 27" d="M12.79 28.8765V34.9752" stroke="black" stroke-width="0.938272" stroke-linecap="round"/>
<path id="Vector 28" d="M15.1357 28.8765V34.9752" stroke="black" stroke-width="0.938272" stroke-linecap="round"/>
<path id="Vector 32" d="M21.2346 13.8641L15.927 19.1718" stroke="black" stroke-width="0.938272" stroke-linecap="round"/>
<path id="Vector 33" d="M22.6753 16.679L19.358 19.9962" stroke="black" stroke-width="0.938272" stroke-linecap="round"/>
<path id="Vector 34" d="M9.03711 8.70361H10.9137" stroke="black" stroke-width="0.938272" stroke-linecap="round"/>
<path id="Vector 35" d="M21.2346 2.13574H4.92321C4.53964 2.13574 4.14752 2.16861 3.81903 2.36666C3.20232 2.73847 2.41884 3.55042 2.07548 5.0385C2.01738 5.29029 2 5.54956 2 5.80796V36.3827C2 37.4773 2.65679 39.6666 5.28395 39.6666H34.375C34.6839 39.6666 34.9951 39.6445 35.2848 39.5373C36.0454 39.256 37.1016 38.577 37.5343 37.3007C37.6334 37.0081 37.6543 36.6962 37.6543 36.3873V5.06753C37.6543 4.37271 37.53 3.6594 37.0772 3.13239C36.7367 2.7361 36.2897 2.38135 35.7787 2.30586C35.4679 2.25994 35.1504 2.31851 34.8362 2.31851H32.4938" stroke="black" stroke-width="0.938272" stroke-linecap="round"/>
<path id="Vector 36" d="M7.16039 4.69214C5.98917 4.82367 5.22036 5.8494 4.8286 6.67285C4.63784 7.0738 4.58667 7.52159 4.58667 7.96559V21.8394C4.74726 23.0893 5.88559 23.7756 6.71098 24.0605C7.00459 24.1619 7.31685 24.1851 7.62747 24.1851H21.7845C22.0429 24.1851 22.3026 24.1691 22.5532 24.1059C24.4889 23.6176 24.9875 22.1061 24.9875 21.3703V7.10296C24.9875 6.62085 24.6327 6.08939 24.2065 5.63348C23.5626 4.94482 22.6068 4.69214 21.664 4.69214H7.16039Z" stroke="black" stroke-width="0.938272" stroke-linecap="round"/>
<path id="Vector 37" d="M21.2346 7.29626H8.09884C7.52023 7.29626 7.1822 7.85383 7.02147 8.32424C6.93702 8.57138 6.92347 8.83494 6.92347 9.09611V20.0397C6.92347 20.3008 6.88298 20.5626 6.90068 20.8231C6.95518 21.6253 7.68812 21.8395 8.09884 21.8395H20.7655C21.4642 21.8395 21.9582 21.4781 22.2698 21.0918C22.5864 20.6993 22.6421 20.175 22.6421 19.6708V9.17281C22.6421 7.67157 21.7038 7.29626 21.2346 7.29626Z" stroke="black" stroke-width="0.938272" stroke-linecap="round"/>
<circle id="Ellipse 193" cx="5.75307" cy="29.3456" r="0.469136" fill="black"/>
<circle id="Ellipse 207" cx="14.6666" cy="19.9629" r="0.469136" fill="black"/>
<circle id="Ellipse 208" cx="20.7655" cy="12.4568" r="0.469136" fill="black"/>
<circle id="Ellipse 194" cx="5.75307" cy="31.2222" r="0.469136" fill="black"/>
<circle id="Ellipse 195" cx="5.75307" cy="33.0988" r="0.469136" fill="black"/>
<circle id="Ellipse 196" cx="5.75307" cy="34.9752" r="0.469136" fill="black"/>
<circle id="Ellipse 197" cx="6.6913" cy="36.8518" r="0.469136" fill="black"/>
<circle id="Ellipse 199" cx="30.1481" cy="34.9752" r="0.469136" fill="black"/>
<circle id="Ellipse 200" cx="34.8394" cy="36.3827" r="0.938272" fill="black"/>
<circle id="Ellipse 201" cx="34.605" cy="24.2328" r="1.17284" fill="black"/>
<circle id="Ellipse 202" cx="31.79" cy="19.7284" r="1.17284" fill="black"/>
<path id="Vector 20" d="M30.6172 16.679C29.0534 17.4608 26.8641 19.5876 30.6172 21.8394" stroke="black" stroke-width="0.938272" stroke-linecap="round"/>
<path id="Vector 21" d="M32.4939 21.8395C34.0577 21.0576 36.247 18.9308 32.4939 16.679" stroke="black" stroke-width="0.938272" stroke-linecap="round"/>
<path id="Vector 18" d="M31.5554 34.9752H33.432" stroke="black" stroke-width="0.938272" stroke-linecap="round"/>
<circle id="Ellipse 198" cx="26.348" cy="24.7019" r="0.703704" fill="black"/>
<path id="Vector 19" d="M24.9875 36.3827C24.7285 36.3827 24.5184 36.5927 24.5184 36.8518C24.5184 37.1109 24.7285 37.3209 24.9875 37.3209V36.3827ZM24.9875 37.3209H34.9809V36.3827H24.9875V37.3209Z" fill="black"/>
<circle id="Ellipse 203" cx="31.8371" cy="11.0494" r="3.28395" stroke="black" stroke-width="0.938272"/>
<path id="Vector 22" d="M33.432 10.1111L30.6172 12.9259" stroke="black" stroke-width="0.938272" stroke-linecap="round"/>
<path id="Vector 23" d="M26.9018 11.0493C26.7454 11.9876 26.9956 14.1456 29.2475 15.2715" stroke="black" stroke-width="0.469136" stroke-linecap="round"/>
<path id="Vector 24" d="M26.395 7.29626H28.2716" stroke="black" stroke-width="0.938272" stroke-linecap="round"/>
<path id="Vector 31" d="M25.9258 2.13574H27.8023" stroke="black" stroke-width="0.938272" stroke-linecap="round"/>
<path id="Vector 25" d="M28.7407 6.64026H30.6173" stroke="black" stroke-width="0.469136" stroke-linecap="round"/>
<path id="Vector 29" d="M31.3591 30.7531H32.434C33.0406 30.7531 33.6067 31.1072 33.77 31.6913V31.6913" stroke="black" stroke-width="0.469136" stroke-linecap="round"/>
<path id="Vector 30" d="M25.9258 4.95056H34.8394" stroke="black" stroke-width="0.938272" stroke-linecap="round"/>
<circle id="Ellipse 204" cx="34.8394" cy="5.41972" r="0.938272" fill="black"/>
<circle id="Ellipse 205" cx="23.5802" cy="2.13576" r="0.469136" fill="black"/>
<circle id="Ellipse 206" cx="30.1481" cy="2.13576" r="0.469136" fill="black"/>
<rect id="Rectangle 38" x="18.8888" y="29.3456" width="15.9506" height="3.75309" rx="1.87654" stroke="black" stroke-width="0.938272"/>
</g>
</g>
<defs>
<clipPath id="clip0_507_2918">
<rect width="40" height="40" fill="white" transform="translate(0 0.666626)"/>
</clipPath>
</defs>
</svg>
