<svg width="40" height="40" viewBox="0 0 40 40" fill="none" xmlns="http://www.w3.org/2000/svg">
<g id="5">
<g id="Group 107">
<rect id="Rectangle 39" x="4.5" y="10.3065" width="27.9355" height="5.29032" rx="2.64516" stroke="black"/>
<path id="Vector 83" d="M5.25806 13.1015H32.3064" stroke="black" stroke-linecap="round"/>
<path id="Vector 88" d="M7.77417 39.371H24.7643" stroke="black" stroke-linecap="round"/>
<path id="Vector 84" d="M10.2903 23.6451L14.0689 33.1339" stroke="black" stroke-linecap="round"/>
<path id="Vector 85" d="M7.77417 16.0967L7.77417 17.3548" stroke="black" stroke-linecap="round"/>
<path id="Vector 86" d="M7.77417 38.7518L7.77417 19.8703" stroke="black" stroke-linecap="square"/>
<path id="Vector 87" d="M30.1047 16.0501V21.1484" stroke="black" stroke-linecap="round"/>
<g id="Vector">
<path d="M16.2661 1H20.6693C21.2532 1 21.8132 1.26509 22.2261 1.73696C22.639 2.20882 22.8709 2.84881 22.8709 3.51613V6.03226H14.0645V3.51613C14.0645 2.84881 14.2964 2.20882 14.7093 1.73696C15.1222 1.26509 15.6822 1 16.2661 1Z" stroke="black" stroke-miterlimit="10"/>
<path d="M16.2661 1H20.6693C21.2532 1 21.8132 1.26509 22.2261 1.73696C22.639 2.20882 22.8709 2.84881 22.8709 3.51613V6.03226H14.0645V3.51613C14.0645 2.84881 14.2964 2.20882 14.7093 1.73696C15.1222 1.26509 15.6822 1 16.2661 1Z" stroke="black" stroke-miterlimit="10"/>
<path d="M16.2661 1H20.6693C21.2532 1 21.8132 1.26509 22.2261 1.73696C22.639 2.20882 22.8709 2.84881 22.8709 3.51613V6.03226H14.0645V3.51613C14.0645 2.84881 14.2964 2.20882 14.7093 1.73696C15.1222 1.26509 15.6822 1 16.2661 1Z" stroke="black" stroke-miterlimit="10"/>
<path d="M16.2661 1H20.6693C21.2532 1 21.8132 1.26509 22.2261 1.73696C22.639 2.20882 22.8709 2.84881 22.8709 3.51613V6.03226H14.0645V3.51613C14.0645 2.84881 14.2964 2.20882 14.7093 1.73696C15.1222 1.26509 15.6822 1 16.2661 1Z" stroke="black" stroke-miterlimit="10"/>
</g>
<g id="Vector_2">
<path d="M13.1209 6.03223H23.8145C25.2325 6.03223 26.5925 6.23105 27.5952 6.58494C28.5979 6.93884 29.1613 7.41883 29.1613 7.91932V9.80642H7.77417V7.91932C7.77417 7.41883 8.33749 6.93884 9.3402 6.58494C10.3429 6.23105 11.7029 6.03223 13.1209 6.03223Z" stroke="black" stroke-miterlimit="10"/>
<path d="M13.1209 6.03223H23.8145C25.2325 6.03223 26.5925 6.23105 27.5952 6.58494C28.5979 6.93884 29.1613 7.41883 29.1613 7.91932V9.80642H7.77417V7.91932C7.77417 7.41883 8.33749 6.93884 9.3402 6.58494C10.3429 6.23105 11.7029 6.03223 13.1209 6.03223Z" stroke="black" stroke-miterlimit="10"/>
<path d="M13.1209 6.03223H23.8145C25.2325 6.03223 26.5925 6.23105 27.5952 6.58494C28.5979 6.93884 29.1613 7.41883 29.1613 7.91932V9.80642H7.77417V7.91932C7.77417 7.41883 8.33749 6.93884 9.3402 6.58494C10.3429 6.23105 11.7029 6.03223 13.1209 6.03223Z" stroke="black" stroke-miterlimit="10"/>
<path d="M13.1209 6.03223H23.8145C25.2325 6.03223 26.5925 6.23105 27.5952 6.58494C28.5979 6.93884 29.1613 7.41883 29.1613 7.91932V9.80642H7.77417V7.91932C7.77417 7.41883 8.33749 6.93884 9.3402 6.58494C10.3429 6.23105 11.7029 6.03223 13.1209 6.03223Z" stroke="black" stroke-miterlimit="10"/>
</g>
<g id="Vector_3">
<path d="M17.5241 3.51611H19.4112C19.6615 3.51611 19.9015 3.64866 20.0784 3.88459C20.2554 4.12052 20.3548 4.44052 20.3548 4.77418V6.03224H16.5806V4.77418C16.5806 4.44052 16.68 4.12052 16.8569 3.88459C17.0339 3.64866 17.2739 3.51611 17.5241 3.51611Z" stroke="black" stroke-miterlimit="10"/>
<path d="M17.5241 3.51611H19.4112C19.6615 3.51611 19.9015 3.64866 20.0784 3.88459C20.2554 4.12052 20.3548 4.44052 20.3548 4.77418V6.03224H16.5806V4.77418C16.5806 4.44052 16.68 4.12052 16.8569 3.88459C17.0339 3.64866 17.2739 3.51611 17.5241 3.51611Z" stroke="black" stroke-miterlimit="10"/>
<path d="M17.5241 3.51611H19.4112C19.6615 3.51611 19.9015 3.64866 20.0784 3.88459C20.2554 4.12052 20.3548 4.44052 20.3548 4.77418V6.03224H16.5806V4.77418C16.5806 4.44052 16.68 4.12052 16.8569 3.88459C17.0339 3.64866 17.2739 3.51611 17.5241 3.51611Z" stroke="black" stroke-miterlimit="10"/>
<path d="M17.5241 3.51611H19.4112C19.6615 3.51611 19.9015 3.64866 20.0784 3.88459C20.2554 4.12052 20.3548 4.44052 20.3548 4.77418V6.03224H16.5806V4.77418C16.5806 4.44052 16.68 4.12052 16.8569 3.88459C17.0339 3.64866 17.2739 3.51611 17.5241 3.51611Z" stroke="black" stroke-miterlimit="10"/>
</g>
<path id="Ellipse 215" d="M32.4354 29.9355C32.4354 33.8282 29.2797 36.9839 25.387 36.9839C21.4943 36.9839 18.3386 33.8282 18.3386 29.9355C18.3386 26.0428 21.4943 22.8871 25.387 22.8871C29.2797 22.8871 32.4354 26.0428 32.4354 29.9355Z" stroke="black"/>
<circle id="Ellipse 216" cx="25.387" cy="29.9355" r="9.56452" stroke="black"/>
<path id="Vector_4" d="M31.6775 19.871C32.9941 20.7442 34.0919 21.909 34.8856 23.2751" stroke="black" stroke-miterlimit="10"/>
<path id="Vector_5" d="M15.3225 23.2751C16.1162 21.909 17.2139 20.7442 18.5306 19.871" stroke="black" stroke-miterlimit="10"/>
<path id="Vector_6" d="M25.3872 17.3549V20.759" stroke="black" stroke-miterlimit="10"/>
<path id="Vector_7" d="M23.5 17.3549H27.2742" stroke="black" stroke-miterlimit="10"/>
<path id="Vector_8" d="M24.8872 26.1613C24.8872 26.4374 25.1111 26.6613 25.3872 26.6613C25.6633 26.6613 25.8872 26.4374 25.8872 26.1613H24.8872ZM24.8872 23.6451V26.1613H25.8872V23.6451H24.8872Z" fill="black"/>
<path id="Vector_9" d="M25.3872 33.7097V36.2258" stroke="black" stroke-miterlimit="10" stroke-linecap="round"/>
<path id="Vector_10" d="M30.7339 30.5645H29.4758" stroke="black" stroke-miterlimit="10" stroke-linecap="round"/>
<path id="Vector_11" d="M21.2354 30.5645H19.9773" stroke="black" stroke-miterlimit="10" stroke-linecap="round"/>
<path id="Vector_12" d="M24.1292 29.9355L21.613 28.6774" stroke="black" stroke-miterlimit="10" stroke-linecap="round"/>
<path id="Vector_13" d="M19.3196 37.8955L19.7319 37.6125L19.1659 36.7881L18.7537 37.071L19.3196 37.8955ZM17.6708 37.8144C17.4432 37.9707 17.3853 38.2819 17.5416 38.5096C17.6979 38.7372 18.0091 38.7951 18.2368 38.6388L17.6708 37.8144ZM18.7537 37.071L17.6708 37.8144L18.2368 38.6388L19.3196 37.8955L18.7537 37.071Z" fill="black"/>
<path id="Vector_14" d="M32.8755 38.2265L31.7927 37.4832" stroke="black" stroke-miterlimit="10" stroke-linecap="round"/>
</g>
</g>
</svg>
