<svg width="40" height="41" viewBox="0 0 40 41" fill="none" xmlns="http://www.w3.org/2000/svg">
<g id="6" clip-path="url(#clip0_507_2896)">
<g id="Group 103">
<circle id="Ellipse 192" cx="20" cy="20.1395" r="19.5" stroke="black"/>
<path id="Line 12" d="M3.85376 38.105L37.7906 3.53656" stroke="black" stroke-linecap="round"/>
<path id="Vector 3" d="M38.5896 13.15H31.8738V23.5921H39.4948" stroke="black"/>
<path id="Vector 4" d="M9.22095 16.0974C11.6701 15.1571 17.2462 13.2048 19.9578 12.9185C20.9473 12.7852 23.9283 12.8006 27.9367 13.929H31.8946V14.1396" stroke="black"/>
<path id="Vector 6" d="M23.1181 24.4952C22.8959 24.3312 22.5829 24.3783 22.4188 24.6004C22.2548 24.8226 22.3019 25.1356 22.524 25.2997L23.1181 24.4952ZM22.524 25.2997L30.7345 31.3628L31.3286 30.5584L23.1181 24.4952L22.524 25.2997Z" fill="black"/>
<path id="Vector 10" d="M20.1451 29.2774C19.9132 29.1276 19.6037 29.1941 19.4538 29.426C19.304 29.658 19.3705 29.9675 19.6024 30.1173L20.1451 29.2774ZM19.6024 30.1173L25.0761 33.6542L25.6188 32.8143L20.1451 29.2774L19.6024 30.1173Z" fill="black"/>
<path id="Vector 8" d="M23.8738 18.5764C24.1499 18.5764 24.3738 18.3525 24.3738 18.0764C24.3738 17.8002 24.1499 17.5764 23.8738 17.5764V18.5764ZM19.0106 18.0764V17.5764H18.739L18.5912 17.8043L19.0106 18.0764ZM13.9159 20.5817L13.6036 20.9721L13.6386 21.0001L13.678 21.0214L13.9159 20.5817ZM14.9054 16.3711L14.5023 16.0753L14.4892 16.0931L14.4778 16.1119L14.9054 16.3711ZM23.8738 17.5764H19.0106V18.5764H23.8738V17.5764ZM18.5912 17.8043C18.1953 18.4145 17.4803 19.2613 16.6422 19.8157C15.8034 20.3705 14.9482 20.5716 14.1538 20.1419L13.678 21.0214C14.9383 21.7032 16.2095 21.3009 17.1939 20.6497C18.1789 19.9982 18.9839 19.0365 19.4301 18.3485L18.5912 17.8043ZM14.2283 20.1912C14.2574 20.2146 14.0835 20.0626 14.1624 19.4451C14.2375 18.8578 14.5371 17.943 15.3329 16.6303L14.4778 16.1119C13.64 17.494 13.2694 18.544 13.1705 19.3182C13.0754 20.0621 13.2235 20.668 13.6036 20.9721L14.2283 20.1912ZM15.3085 16.6669C15.6077 16.2592 16.1732 15.5997 16.8757 14.9797C17.5838 14.3548 18.3924 13.8045 19.1775 13.5652L18.8859 12.6086C17.9026 12.9083 16.9673 13.565 16.214 14.2299C15.4551 14.8997 14.8417 15.6129 14.5023 16.0753L15.3085 16.6669Z" fill="black"/>
<path id="Vector 9" d="M24.3999 17.6974L33.6631 25.5711C34.2876 26.0412 35.3262 27.4869 34.4841 29.5079C34.1753 30.1605 33.0862 31.3353 31.0315 30.9816C30.6034 32.4342 28.7325 34.8932 25.2631 33.1921" stroke="black"/>
<path id="Vector 12" d="M13.4812 29.2907C13.431 29.0191 13.1701 28.8397 12.8986 28.8899C12.6271 28.9401 12.4476 29.201 12.4978 29.4725L13.4812 29.2907ZM19.2211 33.2763L19.3751 33.752L19.4065 33.7418L19.4363 33.7277L19.2211 33.2763ZM12.4978 29.4725C12.683 30.4739 13.2386 31.8965 14.3369 32.9006C15.4692 33.9359 17.1303 34.4791 19.3751 33.752L19.067 32.8007C17.1519 33.4209 15.8691 32.9466 15.0116 32.1626C14.1201 31.3474 13.6399 30.1489 13.4812 29.2907L12.4978 29.4725ZM19.4363 33.7277C19.794 33.5571 20.3111 33.2128 20.7683 32.7118C21.2277 32.2084 21.6499 31.5204 21.7591 30.6661L20.7672 30.5392C20.6912 31.1333 20.3941 31.6383 20.0296 32.0377C19.6629 32.4395 19.2517 32.7078 19.0059 32.825L19.4363 33.7277Z" fill="black"/>
<path id="Vector 13" d="M18.7791 33.4447C19.9791 34.9746 22.9938 37.0868 25.4527 33.2974" stroke="black"/>
<path id="Vector 10_2" d="M1.01054 14.4342H9.1158V25.7395H0.905273" stroke="black"/>
<path id="Vector 11" d="M9.11572 25.7606L12.9052 29.2975" stroke="black"/>
</g>
</g>
<defs>
<clipPath id="clip0_507_2896">
<rect width="40" height="40" fill="white" transform="translate(0 0.139526)"/>
</clipPath>
</defs>
</svg>
