<svg width="36" height="30" viewBox="0 0 36 30" fill="none" xmlns="http://www.w3.org/2000/svg">
<path d="M18.0002 16.3063V17.3045" stroke="black" stroke-miterlimit="10" stroke-linecap="round"/>
<path d="M18.0002 22.6381V23.6363" stroke="black" stroke-miterlimit="10" stroke-linecap="round"/>
<path d="M16 21.6359C16 21.9016 16.1055 22.1564 16.2934 22.3443C16.4813 22.5321 16.7361 22.6377 17.0017 22.6377H18.6667C19.0203 22.6377 19.3594 22.4972 19.6095 22.2471C19.8595 21.9971 20 21.6579 20 21.3043C20 20.9507 19.8595 20.6116 19.6095 20.3615C19.3594 20.1115 19.0203 19.971 18.6667 19.971H17.3333C16.9797 19.971 16.6406 19.8305 16.3905 19.5805C16.1405 19.3304 16 18.9913 16 18.6377C16 18.284 16.1405 17.9449 16.3905 17.6948C16.6406 17.4448 16.9797 17.3043 17.3333 17.3043H18.9983C19.2639 17.3043 19.5187 17.4099 19.7066 17.5977C19.8945 17.7856 20 18.0404 20 18.3061" stroke="black" stroke-miterlimit="10" stroke-linecap="round"/>
<path d="M18.0002 3.30627V4.30453" stroke="black" stroke-miterlimit="10" stroke-linecap="round"/>
<path d="M18.0002 9.63806V10.6363" stroke="black" stroke-miterlimit="10" stroke-linecap="round"/>
<path d="M16 8.63591C16 8.90159 16.1055 9.15639 16.2934 9.34425C16.4813 9.53211 16.7361 9.63765 17.0017 9.63765H18.6667C19.0203 9.63765 19.3594 9.49718 19.6095 9.24713C19.8595 8.99708 20 8.65794 20 8.30432C20 7.9507 19.8595 7.61156 19.6095 7.36151C19.3594 7.11146 19.0203 6.97099 18.6667 6.97099H17.3333C16.9797 6.97099 16.6406 6.83051 16.3905 6.58046C16.1405 6.33042 16 5.99128 16 5.63765C16 5.28403 16.1405 4.94489 16.3905 4.69485C16.6406 4.4448 16.9797 4.30432 17.3333 4.30432H18.9983C19.2639 4.30432 19.5187 4.40986 19.7066 4.59773C19.8945 4.78559 20 5.04039 20 5.30607" stroke="black" stroke-miterlimit="10" stroke-linecap="round"/>
<path d="M28.25 3.30627V4.17975" stroke="black" stroke-miterlimit="10" stroke-linecap="round"/>
<path d="M28.25 8.84729V9.72076" stroke="black" stroke-miterlimit="10" stroke-linecap="round"/>
<path d="M26.5 7.96971C26.5 8.20217 26.5923 8.42512 26.7567 8.5895C26.9211 8.75388 27.1441 8.84623 27.3765 8.84623H28.8333C29.1428 8.84623 29.4395 8.72332 29.6583 8.50452C29.8771 8.28573 30 7.98898 30 7.67957C30 7.37015 29.8771 7.0734 29.6583 6.85461C29.4395 6.63582 29.1428 6.5129 28.8333 6.5129H27.6667C27.3572 6.5129 27.0605 6.38998 26.8417 6.17119C26.6229 5.9524 26.5 5.65565 26.5 5.34623C26.5 5.03681 26.6229 4.74007 26.8417 4.52127C27.0605 4.30248 27.3572 4.17957 27.6667 4.17957H29.1235C29.3559 4.17957 29.5789 4.27191 29.7433 4.43629C29.9077 4.60067 30 4.82362 30 5.05609" stroke="black" stroke-miterlimit="10" stroke-linecap="round"/>
<path d="M8.5498 3.30627V4.17975" stroke="black" stroke-miterlimit="10" stroke-linecap="round"/>
<path d="M8.55005 8.84729V9.72076" stroke="black" stroke-miterlimit="10" stroke-linecap="round"/>
<path d="M6.7998 7.96971C6.7998 8.20217 6.89215 8.42512 7.05653 8.5895C7.22091 8.75388 7.44386 8.84623 7.67633 8.84623H9.13314C9.44256 8.84623 9.7393 8.72332 9.9581 8.50452C10.1769 8.28573 10.2998 7.98898 10.2998 7.67957C10.2998 7.37015 10.1769 7.0734 9.9581 6.85461C9.7393 6.63582 9.44256 6.5129 9.13314 6.5129H7.96647C7.65705 6.5129 7.36031 6.38998 7.14151 6.17119C6.92272 5.9524 6.7998 5.65565 6.7998 5.34623C6.7998 5.03681 6.92272 4.74007 7.14151 4.52127C7.36031 4.30248 7.65705 4.17957 7.96647 4.17957H9.42328C9.65575 4.17957 9.8787 4.27191 10.0431 4.43629C10.2075 4.60067 10.2998 4.82362 10.2998 5.05609" stroke="black" stroke-miterlimit="10" stroke-linecap="round"/>
<circle cx="18.25" cy="7.05627" r="6.25" stroke="black"/>
<path d="M13 29.1071H22.5" stroke="black" stroke-linecap="round"/>
<path d="M12 26.1071H24" stroke="black" stroke-linecap="round"/>
<path d="M24.5 11.305C29 13.305 32.7318 10.3557 32.7318 7.04194C33 2.80528 29.5 -0.193726 24.5 1.305" stroke="black" stroke-linecap="round"/>
<path d="M12 11.6976C7.5 13.6976 3.76822 10.7482 3.76822 7.43452C3.5 3.19786 7 0.198853 12 1.69758" stroke="black" stroke-linecap="round"/>
<path d="M29 22.1188H32" stroke="black" stroke-linecap="round"/>
<path d="M3.5 22.1071H6.5" stroke="black" stroke-linecap="round"/>
<path d="M3.57959 25.3063H6.49976" stroke="black" stroke-linecap="round"/>
<path d="M29 25.3063H32" stroke="black" stroke-linecap="round"/>
<path d="M19.5781 13.3063L21 14.3063" stroke="black" stroke-linecap="round"/>
<path d="M27.5 12.3063L28.9219 13.3063" stroke="black" stroke-linecap="round"/>
<path d="M16.4219 13.3063L15 14.3063" stroke="black" stroke-linecap="round"/>
<path d="M8.42188 12.3063L7 13.3063" stroke="black" stroke-linecap="round"/>
<path d="M21 14.3063H23.8845C24.2933 14.3063 24.7071 14.3437 25.0749 14.5221C25.6639 14.8079 26.391 15.3503 26.7959 16.2263C26.9675 16.5974 27 17.013 27 17.4218V27.8063M24.5 17.8063V27.8063" stroke="black" stroke-linecap="round"/>
<path d="M21 14.3063H23.8845C24.2933 14.3063 24.7071 14.3437 25.0749 14.5221C25.6639 14.8079 26.391 15.3503 26.7959 16.2263C26.9675 16.5974 27 17.013 27 17.4218V27.8063M24.5 17.8063V27.8063" stroke="black" stroke-linecap="round"/>
<path d="M29 13.3063H31.8304C32.2748 13.3063 32.7263 13.3512 33.1164 13.5641C33.7166 13.8917 34.4463 14.5061 34.8335 15.4931C34.9708 15.843 35 16.2233 35 16.5991V25.3063M32.5 17.1245V25.3063" stroke="black" stroke-linecap="round"/>
<path d="M15 14.3063H12.1155C11.7067 14.3063 11.2929 14.3437 10.9251 14.5221C10.3361 14.8079 9.60902 15.3503 9.20409 16.2263C9.03255 16.5974 9 17.013 9 17.4218V27.8063M11.5 17.8063V27.8063" stroke="black" stroke-linecap="round"/>
<path d="M24.5 28.3063C24.5 28.6396 24.7 29.3063 25.5 29.3063" stroke="black" stroke-linecap="square"/>
<path d="M27 28.3063C27 28.6396 26.8 29.3063 26 29.3063" stroke="black" stroke-linecap="square"/>
<path d="M32.5 25.3063C32.5 25.6396 32.7 26.3063 33.5 26.3063" stroke="black" stroke-linecap="square"/>
<path d="M35 25.3063C35 25.6396 34.8 26.3063 34 26.3063" stroke="black" stroke-linecap="square"/>
<path d="M1 25.3063C1 25.6396 1.2 26.3063 2 26.3063" stroke="black" stroke-linecap="square"/>
<path d="M3.5 25.3063C3.5 25.6396 3.3 26.3063 2.5 26.3063" stroke="black" stroke-linecap="square"/>
<path d="M9 28.3063C9 28.6396 9.2 29.3063 10 29.3063" stroke="black" stroke-linecap="square"/>
<path d="M11.5 28.3063C11.5 28.6396 11.3 29.3063 10.5 29.3063" stroke="black" stroke-linecap="square"/>
<path d="M7 13.3063H4.16959C3.72518 13.3063 3.27367 13.3512 2.88358 13.5641C2.28339 13.8917 1.55368 14.5061 1.16646 15.4931C1.0292 15.843 1 16.2233 1 16.5991V25.3063M3.5 17.1245V25.3063" stroke="black" stroke-linecap="round"/>
</svg>
