<svg width="73" height="167" viewBox="0 0 73 167" fill="none" xmlns="http://www.w3.org/2000/svg">
<path d="M36.6403 1.08008C40.3091 1.08008 43.8579 2.73455 46.496 5.73138C49.1378 8.73232 50.6399 12.8269 50.6399 17.1188V149.151C50.6399 158.133 44.2561 165.19 36.6403 165.19C32.9715 165.19 29.4227 163.536 26.7845 160.539C24.1427 157.538 22.6406 153.443 22.6406 149.151V17.1188C22.6406 8.1373 29.0244 1.08008 36.6403 1.08008Z" fill="#666667" stroke="white" stroke-width="2"/>
<circle cx="36.9004" cy="15.0901" r="14" fill="#666667" stroke="white" stroke-width="2"/>
<path d="M42.5608 16.9621V18.3381H40.4328V21.0901H38.8808V18.3381H32.6568V17.2181L38.3848 9.89009H40.1128L34.6248 16.9621H38.9288V14.5301H40.4328V16.9621H42.5608Z" fill="white"/>
<g clip-path="url(#clip0_1_50)">
<mask id="mask0_1_50" style="mask-type:luminance" maskUnits="userSpaceOnUse" x="0" y="46" width="73" height="73">
<path d="M36.53 46.02C16.6478 46.02 0.530029 62.1378 0.530029 82.02C0.530029 101.902 16.6478 118.02 36.53 118.02C56.4123 118.02 72.53 101.902 72.53 82.02C72.53 62.1378 56.4123 46.02 36.53 46.02Z" fill="white"/>
</mask>
<g mask="url(#mask0_1_50)">
<path d="M36.53 46.02C16.6478 46.02 0.530029 62.1378 0.530029 82.02C0.530029 101.902 16.6478 118.02 36.53 118.02C56.4123 118.02 72.53 101.902 72.53 82.02C72.53 62.1378 56.4123 46.02 36.53 46.02Z" stroke="#C2C2C2" stroke-width="20"/>
</g>
</g>
<g clip-path="url(#clip1_1_50)">
<path d="M36.6001 57.0901C22.793 57.0901 11.6001 68.283 11.6001 82.0901C11.6001 95.8972 22.793 107.09 36.6001 107.09C50.4072 107.09 61.6001 95.8972 61.6001 82.0901C61.6001 68.283 50.4072 57.0901 36.6001 57.0901Z" fill="#C2C2C2"/>
</g>
<path d="M36.4531 79.4885C38.7979 81.8004 38.8237 84.9188 36.5267 87.2486C36.5025 87.2731 36.4779 87.2977 36.4531 87.3221L36.1792 87.0442C36.2025 87.0212 36.226 86.9977 36.2488 86.9746C38.3935 84.7993 38.3715 81.9281 36.1791 79.7664L36.4531 79.4885ZM32.9403 85.6455C34.7711 84.3393 37.2289 84.3393 39.0598 85.6455L38.8332 85.9632C37.1379 84.7538 34.8621 84.7538 33.167 85.9632L32.9403 85.6455ZM35.8867 79.7302C33.6786 81.9071 33.6565 84.7993 35.8165 86.9901C35.8396 87.0136 35.8631 87.0371 35.8867 87.0604L35.6127 87.3383C35.5879 87.3137 35.563 87.2888 35.5386 87.2641C33.2263 84.9187 33.2522 81.7795 35.6127 79.4523L35.8867 79.7302ZM35.9815 79.7903C33.9879 79.8005 32.38 81.4249 32.3904 83.4185C32.4004 85.4123 34.0249 87.0199 36.0187 87.0098L36.0187 87.0098C38.0121 86.9995 39.6201 85.3752 39.6098 83.3815C39.5997 81.4024 37.9978 79.8005 36.0187 79.7903L36.0203 79.7903L35.9811 79.7904C35.9291 79.7906 35.8792 79.77 35.8424 79.7333C35.8057 79.6965 35.7851 79.6466 35.7853 79.5946V79.5945L35.9815 79.7903ZM35.9794 79.4001C36.0315 79.3998 36.0815 79.4204 36.1183 79.4571C36.1552 79.4939 36.1758 79.5439 36.1756 79.5959V79.5961L35.9798 79.4002L36.019 79.4001L36.0207 79.4001C38.2137 79.4114 39.9888 81.1865 40 83.3795C40.0115 85.5888 38.2296 87.3886 36.0207 87.4001L36.0207 87.4001C33.8115 87.4113 32.0113 85.6299 32.0001 83.4205C31.9887 81.2114 33.7704 79.4114 35.9794 79.4001ZM36.1952 79.5952L36.1952 87.2049L35.8049 87.205L35.8049 79.5952H36.1952ZM39.805 83.5951L32.1951 83.5953L32.1951 83.205L39.805 83.2049L39.805 83.5951ZM33.167 80.9519C34.8621 82.1612 37.1379 82.1612 38.8332 80.9519L39.0598 81.2696C37.2289 82.5757 34.7711 82.5757 32.9403 81.2696L33.167 80.9519Z" fill="black"/>
<g clip-path="url(#clip2_1_50)">
<path d="M25.48 92.5001C25.48 91.7389 25.7824 91.0089 26.3206 90.4707C26.8589 89.9325 27.5889 89.6301 28.35 89.6301C29.1104 89.6327 29.8389 89.9359 30.3765 90.4736C30.9142 91.0113 31.2174 91.7397 31.22 92.5001" stroke="black" stroke-width="1.5" stroke-miterlimit="10"/>
<path d="M28.3501 87.7101C29.4049 87.7101 30.2601 86.8549 30.2601 85.8001C30.2601 84.7452 29.4049 83.8901 28.3501 83.8901C27.2952 83.8901 26.4401 84.7452 26.4401 85.8001C26.4401 86.8549 27.2952 87.7101 28.3501 87.7101Z" stroke="black" stroke-width="1.5" stroke-miterlimit="10"/>
<path d="M33.1301 79.1101C33.1301 78.3489 33.4324 77.6189 33.9707 77.0807C34.5089 76.5425 35.2389 76.2401 36.0001 76.2401C36.7612 76.2401 37.4912 76.5425 38.0295 77.0807C38.5677 77.6189 38.8701 78.3489 38.8701 79.1101" stroke="black" stroke-width="1.5" stroke-miterlimit="10"/>
<path d="M36.0001 74.3201C37.055 74.3201 37.9101 73.4649 37.9101 72.4101C37.9101 71.3552 37.055 70.5001 36.0001 70.5001C34.9452 70.5001 34.0901 71.3552 34.0901 72.4101C34.0901 73.4649 34.9452 74.3201 36.0001 74.3201Z" stroke="black" stroke-width="1.5" stroke-miterlimit="10"/>
<path d="M40.7801 92.5001C40.7827 91.7397 41.0859 91.0113 41.6236 90.4736C42.1613 89.9359 42.8897 89.6327 43.6501 89.6301C44.4113 89.6301 45.1413 89.9325 45.6795 90.4707C46.2177 91.0089 46.5201 91.7389 46.5201 92.5001" stroke="black" stroke-width="1.5" stroke-miterlimit="10"/>
<path d="M43.6501 87.7101C44.7049 87.7101 45.5601 86.8549 45.5601 85.8001C45.5601 84.7452 44.7049 83.8901 43.6501 83.8901C42.5952 83.8901 41.7401 84.7452 41.7401 85.8001C41.7401 86.8549 42.5952 87.7101 43.6501 87.7101Z" stroke="black" stroke-width="1.5" stroke-miterlimit="10"/>
<path d="M27.4401 82.0901C27.5955 80.4824 28.199 78.9506 29.1819 77.6689C30.1648 76.3873 31.4877 75.4072 33.0001 74.8401" stroke="black" stroke-width="1.5" stroke-miterlimit="10"/>
<path d="M32.8701 91.0001C34.8826 91.7865 37.1175 91.7865 39.1301 91.0001" stroke="black" stroke-width="1.5" stroke-miterlimit="10"/>
<path d="M39.0001 74.8501C40.5224 75.4042 41.8564 76.3784 42.8476 77.6599C43.8387 78.9413 44.4464 80.4774 44.6001 82.0901" stroke="black" stroke-width="1.5" stroke-miterlimit="10"/>
</g>
<defs>
<clipPath id="clip0_1_50">
<rect width="72" height="72" fill="white" transform="translate(0.530029 46.02)"/>
</clipPath>
<clipPath id="clip1_1_50">
<rect width="50" height="50" fill="white" transform="translate(11.6001 57.0901)"/>
</clipPath>
<clipPath id="clip2_1_50">
<rect width="24" height="24" fill="white" transform="translate(24.0001 69.0001)"/>
</clipPath>
</defs>
</svg>
