<svg width="73" height="167" viewBox="0 0 73 167" fill="none" xmlns="http://www.w3.org/2000/svg">
<path d="M36.7399 1.08008C40.4087 1.08008 43.9575 2.73455 46.5957 5.73138C49.2375 8.73232 50.7395 12.8269 50.7395 17.1188V149.151C50.7395 158.133 44.3557 165.19 36.7399 165.19C33.0711 165.19 29.5223 163.536 26.8841 160.539C24.2423 157.538 22.7402 153.443 22.7402 149.151V17.1188C22.7402 8.1373 29.1241 1.08008 36.7399 1.08008Z" fill="#666667" stroke="white" stroke-width="2"/>
<circle cx="37" cy="15.0901" r="14" fill="#666667" stroke="white" stroke-width="2"/>
<path d="M36.3743 14.3541C39.7183 14.3541 41.0303 15.7461 41.0303 17.7301C41.0303 19.6661 39.6543 21.2181 36.7903 21.2181C35.2063 21.2181 33.6383 20.7061 32.6783 19.8581L33.4143 18.5941C34.1663 19.2981 35.4143 19.7941 36.7743 19.7941C38.4703 19.7941 39.4303 19.0101 39.4303 17.7941C39.4303 16.5301 38.6303 15.7461 36.0383 15.7461H33.4943L34.0863 9.89009H40.4062V11.2821H35.4303L35.1263 14.3541H36.3743Z" fill="white"/>
<g clip-path="url(#clip0_1_24)">
<mask id="mask0_1_24" style="mask-type:luminance" maskUnits="userSpaceOnUse" x="0" y="46" width="73" height="73">
<path d="M36.6296 46.02C16.7474 46.02 0.629639 62.1378 0.629639 82.02C0.629639 101.902 16.7474 118.02 36.6296 118.02C56.5119 118.02 72.6296 101.902 72.6296 82.02C72.6296 62.1378 56.5119 46.02 36.6296 46.02Z" fill="white"/>
</mask>
<g mask="url(#mask0_1_24)">
<path d="M36.6296 46.02C16.7474 46.02 0.629639 62.1378 0.629639 82.02C0.629639 101.902 16.7474 118.02 36.6296 118.02C56.5119 118.02 72.6296 101.902 72.6296 82.02C72.6296 62.1378 56.5119 46.02 36.6296 46.02Z" stroke="#C2C2C2" stroke-width="20"/>
</g>
</g>
<g clip-path="url(#clip1_1_24)">
<path d="M36.6997 57.0901C22.8926 57.0901 11.6997 68.283 11.6997 82.0901C11.6997 95.8972 22.8926 107.09 36.6997 107.09C50.5068 107.09 61.6997 95.8972 61.6997 82.0901C61.6997 68.283 50.5068 57.0901 36.6997 57.0901Z" fill="#C2C2C2"/>
</g>
<path d="M44.61 77C45.5492 79.0224 45.7463 81.3109 45.1666 83.4641C44.5869 85.6173 43.2676 87.4976 41.44 88.7752C39.6124 90.0527 37.3933 90.6459 35.172 90.4507C32.9508 90.2555 30.8692 89.2843 29.2924 87.7076C27.7157 86.1309 26.7445 84.0492 26.5493 81.828C26.3541 79.6067 26.9473 77.3876 28.2248 75.56C29.5024 73.7324 31.3827 72.4131 33.5359 71.8334C35.6891 71.2537 37.9776 71.4508 40 72.39" stroke="black" stroke-width="1.5" stroke-miterlimit="10"/>
<path d="M40.42 79.26C40.6417 79.8132 40.7537 80.4041 40.75 81C40.75 81.9395 40.4714 82.8578 39.9495 83.639C39.4275 84.4201 38.6857 85.0289 37.8177 85.3884C36.9498 85.7479 35.9947 85.842 35.0733 85.6587C34.1519 85.4754 33.3055 85.0231 32.6412 84.3588C31.9769 83.6945 31.5245 82.8481 31.3413 81.9267C31.158 81.0053 31.2521 80.0502 31.6116 79.1823C31.9711 78.3143 32.5799 77.5725 33.361 77.0505C34.1422 76.5286 35.0605 76.25 36 76.25C36.5959 76.2463 37.1869 76.3583 37.74 76.58" stroke="black" stroke-width="1.5" stroke-miterlimit="10"/>
<path d="M36 81L41.7 75.3V73.4L43.6 71.5V73.4H45.5L43.6 75.3H41.7" stroke="black" stroke-width="1.5" stroke-miterlimit="10"/>
<path d="M36 81.95C36.5247 81.95 36.95 81.5247 36.95 81C36.95 80.4753 36.5247 80.05 36 80.05C35.4753 80.05 35.05 80.4753 35.05 81C35.05 81.5247 35.4753 81.95 36 81.95Z" stroke="black" stroke-width="1.5" stroke-miterlimit="10"/>
<defs>
<clipPath id="clip0_1_24">
<rect width="72" height="72" fill="white" transform="translate(0.629639 46.02)"/>
</clipPath>
<clipPath id="clip1_1_24">
<rect width="50" height="50" fill="white" transform="translate(11.6997 57.0901)"/>
</clipPath>
</defs>
</svg>
