<svg width="73" height="168" viewBox="0 0 73 168" fill="none" xmlns="http://www.w3.org/2000/svg">
<path d="M36.6403 1.98999C40.3091 1.98999 43.8579 3.64446 46.496 6.64129C49.1378 9.64223 50.6399 13.7368 50.6399 18.0288V150.061C50.6399 159.043 44.2561 166.1 36.6403 166.1C32.9715 166.1 29.4227 164.446 26.7845 161.449C24.1427 158.448 22.6406 154.353 22.6406 150.061V18.0288C22.6406 9.04721 29.0244 1.98999 36.6403 1.98999Z" fill="#666667" stroke="white" stroke-width="2"/>
<circle cx="36.9004" cy="16" r="14" fill="#666667" stroke="white" stroke-width="2"/>
<path d="M34.0675 10.8H38.1795V22H36.5955V12.192H34.0675V10.8Z" fill="white"/>
<mask id="mask0_1_25" style="mask-type:luminance" maskUnits="userSpaceOnUse" x="0" y="46" width="73" height="73">
<path d="M36.53 46.9299C16.6478 46.9299 0.530029 63.0477 0.530029 82.9299C0.530029 102.812 16.6478 118.93 36.53 118.93C56.4123 118.93 72.53 102.812 72.53 82.9299C72.53 63.0477 56.4123 46.9299 36.53 46.9299Z" fill="white"/>
</mask>
<g mask="url(#mask0_1_25)">
<path d="M36.53 46.9299C16.6478 46.9299 0.530029 63.0477 0.530029 82.9299C0.530029 102.812 16.6478 118.93 36.53 118.93C56.4123 118.93 72.53 102.812 72.53 82.9299C72.53 63.0477 56.4123 46.9299 36.53 46.9299Z" stroke="#C2C2C2" stroke-width="20"/>
</g>
<path d="M36.6001 57.9999C22.793 57.9999 11.6001 69.1928 11.6001 82.9999C11.6001 96.807 22.793 108 36.6001 108C50.4072 108 61.6001 96.807 61.6001 82.9999C61.6001 69.1928 50.4072 57.9999 36.6001 57.9999Z" fill="#C2C2C2"/>
<path d="M44.59 76.27H27.41C26.3551 76.27 25.5 77.1251 25.5 78.18V89.63C25.5 90.6849 26.3551 91.54 27.41 91.54H44.59C45.6449 91.54 46.5 90.6849 46.5 89.63V78.18C46.5 77.1251 45.6449 76.27 44.59 76.27Z" stroke="black" stroke-width="1.5" stroke-miterlimit="10" stroke-linecap="square"/>
<path d="M37.91 83H42.68C43.1854 83.0014 43.686 82.9022 44.1527 82.7082C44.6194 82.5142 45.0429 82.2293 45.3984 81.87C45.7539 81.5108 46.0344 81.0844 46.2235 80.6157C46.4127 80.147 46.5066 79.6454 46.5 79.14V78.14C46.5 77.6334 46.2988 77.1476 45.9406 76.7894C45.5824 76.4312 45.0966 76.23 44.59 76.23H27.41C27.1558 76.2299 26.9041 76.2806 26.6697 76.3791C26.4353 76.4776 26.223 76.6219 26.0451 76.8035C25.8672 76.9851 25.7273 77.2004 25.6337 77.4368C25.5401 77.6732 25.4947 77.9258 25.5 78.18V79.18C25.4987 79.682 25.5966 80.1794 25.7881 80.6434C25.9796 81.1075 26.2609 81.5291 26.6159 81.8841C26.9709 82.2391 27.3925 82.5204 27.8566 82.7119C28.3206 82.9034 28.818 83.0013 29.32 83H37.91Z" stroke="black" stroke-width="1.5" stroke-miterlimit="10"/>
<path d="M36 82V83.91" stroke="black" stroke-width="1.5" stroke-miterlimit="10" stroke-linecap="square"/>
<path d="M39.82 76.27H32.18L33.14 72.46H38.86L39.82 76.27Z" stroke="black" stroke-width="1.5" stroke-miterlimit="10" stroke-linecap="square"/>
</svg>
