<svg width="73" height="168" viewBox="0 0 73 168" fill="none" xmlns="http://www.w3.org/2000/svg">
<path d="M36.7399 1.98999C40.4087 1.98999 43.9575 3.64446 46.5957 6.64129C49.2375 9.64223 50.7395 13.7368 50.7395 18.0288V150.061C50.7395 159.043 44.3557 166.1 36.7399 166.1C33.0711 166.1 29.5223 164.446 26.8841 161.449C24.2423 158.448 22.7402 154.353 22.7402 150.061V18.0288C22.7402 9.04721 29.1241 1.98999 36.7399 1.98999Z" fill="#666667" stroke="white" stroke-width="2"/>
<circle cx="37" cy="16" r="14" fill="#666667" stroke="white" stroke-width="2"/>
<path d="M35.3023 20.608H41.0463V22H32.9983V20.912L37.5583 16.512C38.7423 15.36 38.9663 14.656 38.9663 13.952C38.9663 12.8 38.1503 12.096 36.5823 12.096C35.3823 12.096 34.4062 12.48 33.7183 13.312L32.6303 12.368C33.4943 11.296 34.9823 10.672 36.7263 10.672C39.0623 10.672 40.5663 11.872 40.5663 13.792C40.5663 14.88 40.2463 15.856 38.7263 17.312L35.3023 20.608Z" fill="white"/>
<mask id="mask0_1_21" style="mask-type:luminance" maskUnits="userSpaceOnUse" x="0" y="46" width="73" height="73">
<path d="M36.6296 46.9299C16.7474 46.9299 0.629639 63.0477 0.629639 82.9299C0.629639 102.812 16.7474 118.93 36.6296 118.93C56.5119 118.93 72.6296 102.812 72.6296 82.9299C72.6296 63.0477 56.5119 46.9299 36.6296 46.9299Z" fill="white"/>
</mask>
<g mask="url(#mask0_1_21)">
<path d="M36.6296 46.9299C16.7474 46.9299 0.629639 63.0477 0.629639 82.9299C0.629639 102.812 16.7474 118.93 36.6296 118.93C56.5119 118.93 72.6296 102.812 72.6296 82.9299C72.6296 63.0477 56.5119 46.9299 36.6296 46.9299Z" stroke="#C2C2C2" stroke-width="20"/>
</g>
<g clip-path="url(#clip0_1_21)">
<path d="M36.6997 57.9999C22.8926 57.9999 11.6997 69.1928 11.6997 82.9999C11.6997 96.807 22.8926 108 36.6997 108C50.5068 108 61.6997 96.807 61.6997 82.9999C61.6997 69.1928 50.5068 57.9999 36.6997 57.9999Z" fill="#C2C2C2"/>
</g>
<path d="M43.64 79.14C43.64 85.82 36 92.5 36 92.5C36 92.5 28.36 85.82 28.36 79.14C28.36 77.1137 29.1649 75.1705 30.5977 73.7377C32.0305 72.3049 33.9737 71.5 36 71.5C38.0263 71.5 39.9695 72.3049 41.4023 73.7377C42.8351 75.1705 43.64 77.1137 43.64 79.14Z" stroke="black" stroke-width="1.5" stroke-miterlimit="10"/>
<path d="M36 82C37.5795 82 38.86 80.7195 38.86 79.14C38.86 77.5605 37.5795 76.28 36 76.28C34.4205 76.28 33.14 77.5605 33.14 79.14C33.14 80.7195 34.4205 82 36 82Z" stroke="black" stroke-width="1.5" stroke-miterlimit="10"/>
<defs>
<clipPath id="clip0_1_21">
<rect width="50" height="50" fill="white" transform="translate(11.6997 57.9999)"/>
</clipPath>
</defs>
</svg>
