<svg width="73" height="167" viewBox="0 0 73 167" fill="none" xmlns="http://www.w3.org/2000/svg">
<path d="M36.8397 1.08008C40.5086 1.08008 44.0573 2.73455 46.6955 5.73138C49.3373 8.73232 50.8394 12.8269 50.8394 17.1188V149.151C50.8394 158.133 44.4556 165.19 36.8397 165.19C33.1709 165.19 29.6222 163.536 26.984 160.539C24.3422 157.538 22.8401 153.443 22.8401 149.151V17.1188C22.8401 8.1373 29.2239 1.08008 36.8397 1.08008Z" fill="#666667" stroke="white" stroke-width="2"/>
<circle cx="37.0999" cy="15.0901" r="14" fill="#666667" stroke="white" stroke-width="2"/>
<path d="M37.7624 14.2901C39.9864 14.2901 41.6024 15.6181 41.6024 17.6821C41.6024 19.8421 39.8584 21.2181 37.6344 21.2181C34.6264 21.2181 32.9304 19.2021 32.9304 15.6341C32.9304 11.8101 35.0904 9.76209 38.2264 9.76209C39.2824 9.76209 40.2904 9.97009 41.0104 10.4181L40.4024 11.6661C39.8264 11.2821 39.0584 11.1381 38.2584 11.1381C35.9864 11.1381 34.5304 12.5621 34.5304 15.3621C34.5304 15.4901 34.5304 15.6181 34.5464 15.7621C35.1864 14.8021 36.3704 14.2901 37.7624 14.2901ZM37.5704 19.9221C39.0264 19.9221 40.0504 19.0741 40.0504 17.7461C40.0504 16.4341 39.0584 15.5861 37.4904 15.5861C35.9704 15.5861 34.9144 16.5301 34.9144 17.7621C34.9144 18.9141 35.8424 19.9221 37.5704 19.9221Z" fill="white"/>
<g clip-path="url(#clip0_1_50)">
<mask id="mask0_1_50" style="mask-type:luminance" maskUnits="userSpaceOnUse" x="0" y="46" width="73" height="73">
<path d="M36.7295 46.02C16.8472 46.02 0.729492 62.1378 0.729492 82.02C0.729492 101.902 16.8472 118.02 36.7295 118.02C56.6117 118.02 72.7295 101.902 72.7295 82.02C72.7295 62.1378 56.6117 46.02 36.7295 46.02Z" fill="white"/>
</mask>
<g mask="url(#mask0_1_50)">
<path d="M36.7295 46.02C16.8472 46.02 0.729492 62.1378 0.729492 82.02C0.729492 101.902 16.8472 118.02 36.7295 118.02C56.6117 118.02 72.7295 101.902 72.7295 82.02C72.7295 62.1378 56.6117 46.02 36.7295 46.02Z" stroke="#C2C2C2" stroke-width="20"/>
</g>
</g>
<g clip-path="url(#clip1_1_50)">
<path d="M36.7996 57.0901C22.9924 57.0901 11.7996 68.283 11.7996 82.0901C11.7996 95.8972 22.9924 107.09 36.7996 107.09C50.6067 107.09 61.7996 95.8972 61.7996 82.0901C61.7996 68.283 50.6067 57.0901 36.7996 57.0901Z" fill="#C2C2C2"/>
</g>
<path d="M34.3558 93L36.5714 85.6147H32.8788L30.6632 93" stroke="black" stroke-miterlimit="10"/>
<path d="M41.0028 93L38.7872 85.6147H35.0946" stroke="black" stroke-miterlimit="10"/>
<path d="M37.3102 93L35.8331 88.074" stroke="black" stroke-miterlimit="10"/>
<path d="M40.8166 76.8331C40.808 77.9757 40.4041 79.0802 39.6734 79.9587C38.9428 80.8373 37.9304 81.4358 36.8085 81.6524C35.6865 81.8691 34.5241 81.6906 33.5189 81.1472C32.5136 80.6039 31.7275 79.7292 31.2942 78.6719C30.8608 77.6146 30.8069 76.4398 31.1416 75.3473C31.4763 74.2547 32.179 73.3117 33.1303 72.6786C34.0816 72.0455 35.2227 71.7613 36.3598 71.8743C37.4969 71.9873 38.5598 72.4906 39.3678 73.2985C39.8299 73.7634 40.1957 74.3149 40.4443 74.9215C40.6929 75.528 40.8194 76.1776 40.8166 76.8331Z" stroke="black" stroke-miterlimit="10" stroke-linecap="square"/>
<path d="M43.6662 76.8331C43.6662 77.5045 42.8455 78.0565 42.6814 78.6683C42.5173 79.28 42.9425 80.1976 42.6217 80.7496C42.301 81.3017 41.3013 81.3837 40.8462 81.8462C40.3912 82.3088 40.3166 83.2935 39.7496 83.6143C39.1826 83.9351 38.3024 83.5098 37.6683 83.6814C37.0341 83.853 36.497 84.6662 35.8331 84.6662C35.1691 84.6662 34.6171 83.8455 33.9979 83.6814C33.3787 83.5173 32.5059 83.9425 31.9165 83.6143C31.3272 83.286 31.2824 82.3013 30.8199 81.8462C30.3574 81.3912 29.3727 81.3091 29.0444 80.7496C28.7162 80.1901 29.1563 79.3098 28.9847 78.6683C28.8131 78.0267 28 77.5045 28 76.8331C28 76.1617 28.8206 75.6096 28.9847 74.9979C29.1489 74.3862 28.7236 73.5059 29.0444 72.9165C29.3652 72.3272 30.3574 72.2824 30.8199 71.8199C31.2824 71.3574 31.357 70.3727 31.9165 70.0444C32.476 69.7162 33.3563 70.1563 33.9979 69.9847C34.6395 69.8131 35.1617 69 35.8331 69C36.5045 69 37.0565 69.8206 37.6683 69.9847C38.28 70.1489 39.1603 69.7236 39.7496 70.0444C40.339 70.3652 40.3837 71.3574 40.8462 71.8199C41.3088 72.2824 42.2935 72.357 42.6217 72.9165C42.95 73.476 42.5098 74.3563 42.6814 74.9979C42.853 75.6395 43.6662 76.1617 43.6662 76.8331Z" stroke="black" stroke-miterlimit="10" stroke-linecap="square"/>
<path d="M35.8332 73.7893L36.7135 75.6245L38.683 75.9229L37.2581 77.3552L37.5938 79.3769L35.8332 78.422L34.0727 79.3769L34.4084 77.3552L32.9835 75.9229L34.9529 75.6245L35.8332 73.7893Z" fill="black"/>
<defs>
<clipPath id="clip0_1_50">
<rect width="72" height="72" fill="white" transform="translate(0.729492 46.02)"/>
</clipPath>
<clipPath id="clip1_1_50">
<rect width="50" height="50" fill="white" transform="translate(11.7996 57.0901)"/>
</clipPath>
</defs>
</svg>
