<svg width="73" height="168" viewBox="0 0 73 168" fill="none" xmlns="http://www.w3.org/2000/svg">
<path d="M36.8397 1.98999C40.5086 1.98999 44.0573 3.64446 46.6955 6.64129C49.3373 9.64223 50.8394 13.7368 50.8394 18.0288V150.061C50.8394 159.043 44.4556 166.1 36.8397 166.1C33.1709 166.1 29.6222 164.446 26.984 161.449C24.3422 158.448 22.8401 154.353 22.8401 150.061V18.0288C22.8401 9.04721 29.2239 1.98999 36.8397 1.98999Z" fill="#666667" stroke="white" stroke-width="2"/>
<circle cx="37.0999" cy="16" r="14" fill="#666667" stroke="white" stroke-width="2"/>
<path d="M37.5777 15.504C39.8177 15.712 40.9537 16.976 40.9537 18.704C40.9537 20.592 39.5617 22.128 36.7137 22.128C35.1137 22.128 33.5457 21.616 32.6017 20.768L33.3377 19.504C34.0897 20.208 35.3377 20.704 36.7137 20.704C38.3937 20.704 39.3537 19.936 39.3537 18.72C39.3537 17.536 38.5057 16.768 36.5857 16.768H35.6897V15.648L38.5057 12.192H33.1137V10.8H40.5057V11.888L37.5777 15.504Z" fill="white"/>
<g clip-path="url(#clip0_1_40)">
<mask id="mask0_1_40" style="mask-type:luminance" maskUnits="userSpaceOnUse" x="0" y="46" width="73" height="73">
<path d="M36.7295 46.9299C16.8472 46.9299 0.729492 63.0477 0.729492 82.9299C0.729492 102.812 16.8472 118.93 36.7295 118.93C56.6117 118.93 72.7295 102.812 72.7295 82.9299C72.7295 63.0477 56.6117 46.9299 36.7295 46.9299Z" fill="white"/>
</mask>
<g mask="url(#mask0_1_40)">
<path d="M36.7295 46.9299C16.8472 46.9299 0.729492 63.0477 0.729492 82.9299C0.729492 102.812 16.8472 118.93 36.7295 118.93C56.6117 118.93 72.7295 102.812 72.7295 82.9299C72.7295 63.0477 56.6117 46.9299 36.7295 46.9299Z" stroke="#C2C2C2" stroke-width="20"/>
</g>
</g>
<g clip-path="url(#clip1_1_40)">
<path d="M36.7996 57.9999C22.9924 57.9999 11.7996 69.1928 11.7996 82.9999C11.7996 96.807 22.9924 108 36.7996 108C50.6067 108 61.7996 96.807 61.7996 82.9999C61.7996 69.1928 50.6067 57.9999 36.7996 57.9999Z" fill="#C2C2C2"/>
</g>
<path d="M37.3593 70.2654C44.3936 77.201 44.471 86.5562 37.5799 93.5454C37.5072 93.6191 37.4334 93.693 37.3592 93.7661L36.5373 92.9324C36.6073 92.8633 36.6777 92.793 36.7462 92.7235C43.1802 86.1978 43.1145 77.584 36.5373 71.0991L37.3593 70.2654ZM26.8208 88.7364C32.3131 84.8178 39.6866 84.8178 45.1792 88.7363L44.4993 89.6894C39.4134 86.0611 32.5862 86.0611 27.5007 89.6894L26.8208 88.7364ZM35.66 70.9903C29.0357 77.5211 28.9693 86.1976 35.4493 92.7702C35.5186 92.8405 35.5892 92.9111 35.66 92.9808L34.838 93.8146C34.7634 93.741 34.6887 93.6663 34.6156 93.5922C27.6786 86.5558 27.7565 77.1383 34.838 70.1566L35.66 70.9903ZM35.9442 71.1707C29.9634 71.2013 25.1399 76.0746 25.1709 82.0553C25.2012 88.0366 30.0747 92.8596 36.0559 92.8293L36.0558 92.8293C42.0362 92.7982 46.8601 87.9254 46.8291 81.9444C46.7988 76.0071 41.9932 71.2014 36.0558 71.1707L36.0607 71.1708L35.9431 71.1711C35.7871 71.1716 35.6374 71.1099 35.5271 70.9996C35.4169 70.8893 35.3552 70.7395 35.3558 70.5836V70.5832L35.9442 71.1707ZM35.9382 70C36.0943 69.9992 36.2443 70.0608 36.3548 70.1712C36.4653 70.2815 36.5271 70.4314 36.5265 70.5876V70.588L35.9393 70.0004L36.0569 70L36.0619 70.0001C42.6411 70.0339 47.9663 75.3592 47.9998 81.9384C48.0342 88.5661 42.6887 93.9656 36.0618 94L36.0618 94C29.4342 94.0336 24.0337 88.6894 24.0002 82.0613C23.9658 75.4339 29.3109 70.034 35.9382 70ZM36.5854 70.5854L36.5854 93.4146L35.4146 93.4147L35.4146 70.5854H36.5854ZM47.4149 82.5852L24.5852 82.5856L24.5851 81.4149L47.4148 81.4144L47.4149 82.5852ZM27.5007 74.6556C32.5862 78.2834 39.4135 78.2835 44.4993 74.6555L45.1792 75.6086C39.6865 79.5267 32.3131 79.5268 26.8208 75.6087L27.5007 74.6556Z" fill="black"/>
<defs>
<clipPath id="clip0_1_40">
<rect width="72" height="72" fill="white" transform="translate(0.729492 46.9299)"/>
</clipPath>
<clipPath id="clip1_1_40">
<rect width="50" height="50" fill="white" transform="translate(11.7996 57.9999)"/>
</clipPath>
</defs>
</svg>
