<svg width="180" height="59" viewBox="0 0 180 59" fill="none" xmlns="http://www.w3.org/2000/svg">
<g id="Brand/Logo">
<g id="svgg">
<path id="path0" fill-rule="evenodd" clip-rule="evenodd" d="M76.8771 1.02735C76.9486 1.03818 77.0392 1.09317 77.0788 1.14958C77.1299 1.22253 77.1507 1.23107 77.1507 1.17979C77.1507 1.06411 77.0478 0.992873 76.8917 1.00057C76.7492 1.00769 76.7489 1.00797 76.8771 1.02735ZM75.5479 1.07379C75.5935 1.08548 75.6685 1.08548 75.714 1.07379C75.7596 1.06183 75.7223 1.05185 75.6308 1.05185C75.5394 1.05185 75.5021 1.06183 75.5479 1.07379ZM117.563 1.11197C116.194 1.19546 115.039 1.35046 113.622 1.64023C113.29 1.70804 113.111 1.75021 112.434 1.92146C112.291 1.95793 112.026 2.02204 111.847 2.06392C111.667 2.10609 111.475 2.15795 111.419 2.17932C111.364 2.20069 111.19 2.25511 111.033 2.30041C110.877 2.34572 110.695 2.40413 110.63 2.43034C110.565 2.45655 110.447 2.49502 110.369 2.51582C110.197 2.56141 109.411 2.84491 109.056 2.98937C108.916 3.04607 108.759 3.1099 108.707 3.13098C108.58 3.18198 108.172 3.35807 107.994 3.43785C107.916 3.47318 107.724 3.55923 107.567 3.62904C107.41 3.69884 107.175 3.81082 107.044 3.87778C105.399 4.72145 105.153 4.85309 105.026 4.95937C104.987 4.99185 104.907 5.03345 104.848 5.0514C104.789 5.06907 104.741 5.10041 104.741 5.12035C104.741 5.14058 104.656 5.19785 104.552 5.248C104.448 5.29786 104.362 5.352 104.362 5.36853C104.362 5.38477 104.297 5.42494 104.219 5.45742C104.141 5.48991 104.076 5.53521 104.076 5.558C104.076 5.58108 104.054 5.59989 104.027 5.59989C103.971 5.59989 103.681 5.79507 103.657 5.8492C103.648 5.86858 103.619 5.88482 103.592 5.88482C103.566 5.88482 103.463 5.94893 103.364 6.02728C103.265 6.10564 103.16 6.16975 103.132 6.16975C103.103 6.16975 103.079 6.18599 103.079 6.20593C103.079 6.22588 102.913 6.35182 102.711 6.48573C102.509 6.61993 102.283 6.78519 102.21 6.85329C102.137 6.92139 102.057 6.97695 102.032 6.97695C102.007 6.97695 101.987 6.99462 101.987 7.01627C101.987 7.03793 101.859 7.14848 101.702 7.26188C101.545 7.37528 101.417 7.48583 101.417 7.50749C101.417 7.52914 101.387 7.54681 101.35 7.54681C101.313 7.54681 101.275 7.56533 101.267 7.58784C101.253 7.6226 100.931 7.90952 100.352 8.40216C100.151 8.57284 98.4727 10.2514 98.4727 10.2813C98.4727 10.2952 98.4126 10.3639 98.3391 10.4343C98.2656 10.5047 98.1001 10.6899 97.971 10.846C97.8422 11.0019 97.6912 11.1731 97.6353 11.2261C97.5795 11.2794 97.4006 11.5028 97.2373 11.723C97.074 11.943 96.8991 12.1672 96.8484 12.2211C96.7974 12.2752 96.7207 12.3781 96.678 12.4499C96.6352 12.5217 96.5834 12.5806 96.5629 12.5806C96.5423 12.5806 96.5258 12.6029 96.5258 12.6299C96.5258 12.6573 96.5039 12.7054 96.4774 12.7368C96.3047 12.9419 95.956 13.4394 95.956 13.4807C95.956 13.5081 95.934 13.5303 95.9072 13.5303C95.8805 13.5303 95.8377 13.5785 95.8124 13.6372C95.7648 13.7471 95.6653 13.9158 95.6235 13.9577C95.5796 14.0016 95.4038 14.2657 95.3704 14.3375C95.3522 14.3768 95.2963 14.4729 95.2459 14.5512C95.1955 14.6296 95.0758 14.8327 94.9798 15.0025C94.8841 15.1721 94.7917 15.3219 94.7752 15.3348C94.7584 15.3479 94.6701 15.5083 94.5786 15.6909C94.4872 15.8739 94.3997 16.0343 94.384 16.0471C94.0922 16.2896 92.4365 20.3281 92.2035 21.3659C92.1829 21.4573 92.1445 21.5961 92.118 21.6744C91.9744 22.1004 91.7288 23.1076 91.5681 23.9302C91.2227 25.6976 91.0743 27.1012 91.0412 28.9165C91.011 30.5893 90.9079 31.6472 90.7056 32.3635C90.668 32.4963 90.6372 32.6459 90.6375 32.6961C90.6375 32.7459 90.6059 32.883 90.5671 33.0004C90.5284 33.118 90.4409 33.4064 90.3728 33.6415C90.3047 33.8765 90.2186 34.1392 90.1819 34.225C90.1451 34.3108 90.1149 34.4014 90.1149 34.4267C90.1149 34.5199 89.3943 36.0158 89.1664 36.3959C89.088 36.5264 89.0085 36.6654 88.99 36.7044C88.9715 36.7438 88.8484 36.9324 88.7165 37.1236C88.5846 37.3148 88.4552 37.5071 88.429 37.551C88.4028 37.5948 88.37 37.6413 88.3563 37.6544C88.3424 37.6672 88.2466 37.7954 88.1435 37.9393C88.0404 38.0829 87.9344 38.224 87.9076 38.2527C87.8811 38.2815 87.7634 38.4203 87.6463 38.5613C87.3371 38.934 86.3878 39.8737 86.043 40.1484C85.8797 40.2786 85.7461 40.4008 85.7461 40.4205C85.7461 40.4401 85.7256 40.4561 85.7008 40.4561C85.676 40.4561 85.5959 40.5117 85.5227 40.5795C85.4495 40.6476 85.2563 40.7909 85.093 40.8983C84.9298 41.0057 84.7962 41.1103 84.7962 41.1311C84.7962 41.1516 84.7759 41.1684 84.7514 41.1684C84.7269 41.1684 84.5183 41.2827 84.2884 41.4223C83.9191 41.6465 83.5647 41.848 83.1815 42.0511C83.0322 42.1303 82.6036 42.3193 82.2187 42.4754C82.0563 42.5415 81.8859 42.6161 81.8406 42.6418C81.7953 42.6671 81.7266 42.6879 81.6879 42.6879C81.6494 42.6879 81.5474 42.7176 81.4616 42.7538C81.31 42.8173 81.1092 42.8814 80.5698 43.037C79.7136 43.2843 78.5018 43.4789 77.5068 43.5293L76.9843 43.5558L76.9965 50.6554L77.0088 57.755L77.9225 57.7282C79.9743 57.6678 82.107 57.3538 84.1075 56.817C84.2383 56.782 84.4625 56.7275 84.6061 56.6959C84.7497 56.6643 84.942 56.6121 85.0335 56.5797C85.125 56.5475 85.4136 56.4517 85.6746 56.3671C86.3328 56.1537 86.93 55.9454 87.0992 55.8702C87.1776 55.8351 87.338 55.7699 87.4554 55.7252C87.7343 55.6186 88.0532 55.481 88.619 55.2231C89.1439 54.9838 90.3483 54.3814 90.6608 54.2019C90.8176 54.1119 90.9885 54.017 91.0409 53.9905C91.0931 53.9643 91.1777 53.9161 91.229 53.8834C91.2803 53.8509 91.4085 53.7711 91.5139 53.7062C91.6193 53.6415 91.7484 53.5623 91.8006 53.5301C91.853 53.4979 91.9276 53.4563 91.967 53.4372C92.0405 53.4018 92.3049 53.2249 92.3468 53.183C92.3599 53.1699 92.4436 53.1183 92.5331 53.0685C92.6226 53.0186 92.7294 52.9499 92.7707 52.916C92.8118 52.8821 92.995 52.7479 93.1779 52.6174C93.3605 52.4869 93.5361 52.3579 93.5677 52.3305C93.599 52.3032 93.6472 52.2806 93.6745 52.2806C93.7016 52.2806 93.7238 52.2593 93.7238 52.2331C93.7238 52.2071 93.756 52.1858 93.7951 52.1858C93.8344 52.1858 93.8663 52.169 93.8663 52.1484C93.8663 52.1279 93.9253 52.0761 93.9971 52.0333C94.0689 51.9906 94.1703 51.9159 94.2225 51.8675C94.2749 51.8191 94.4564 51.6755 94.6262 51.5478C94.796 51.4204 94.9561 51.2925 94.9824 51.2635C95.0086 51.2344 95.2009 51.0634 95.4098 50.8834C95.6186 50.703 95.7967 50.5377 95.8055 50.5158C95.8141 50.4941 95.8394 50.4762 95.8614 50.4762C95.9047 50.4762 96.2492 50.1539 96.9532 49.4547C97.4729 48.9384 97.8778 48.5031 98.4727 47.8198C98.6163 47.6548 98.7599 47.493 98.7916 47.4599C98.8232 47.4269 98.9611 47.2531 99.0979 47.0741C99.2346 46.8949 99.3691 46.7254 99.3965 46.6975C99.4238 46.6693 99.4996 46.5681 99.5649 46.4721C99.6304 46.3764 99.6996 46.2977 99.7193 46.2974C99.739 46.2974 99.7549 46.2649 99.7549 46.2259C99.7549 46.1866 99.7763 46.1547 99.8025 46.1547C99.8284 46.1547 99.8498 46.1322 99.8498 46.1042C99.8498 46.0766 99.978 45.8857 100.135 45.6797C100.291 45.474 100.42 45.2848 100.42 45.2591C100.42 45.2338 100.436 45.2056 100.455 45.197C100.509 45.1731 100.705 44.883 100.705 44.8269C100.705 44.7998 100.723 44.7776 100.746 44.7776C100.769 44.7776 100.815 44.7135 100.847 44.6352C100.88 44.5568 100.925 44.4927 100.948 44.4927C100.971 44.4927 100.99 44.469 100.99 44.4403C100.99 44.4112 101.049 44.2989 101.123 44.1909C101.196 44.0827 101.27 43.9619 101.289 43.9228C101.308 43.8835 101.365 43.7875 101.417 43.7091C101.468 43.6308 101.532 43.5239 101.558 43.4715C101.584 43.4194 101.68 43.2484 101.77 43.0917C101.861 42.935 101.992 42.6891 102.061 42.5455C102.131 42.4019 102.356 41.9386 102.562 41.516C102.768 41.0935 102.937 40.7325 102.937 40.7134C102.937 40.6946 103.001 40.5433 103.079 40.3775C103.158 40.2116 103.222 40.0481 103.222 40.0145C103.222 39.9806 103.239 39.9324 103.26 39.9076C103.28 39.8828 103.346 39.7344 103.405 39.5777C103.465 39.421 103.544 39.2224 103.581 39.1366C103.618 39.0508 103.649 38.9511 103.649 38.9149C103.649 38.8787 103.679 38.7887 103.715 38.7149C103.786 38.5693 103.857 38.3696 103.956 38.0342C103.99 37.9165 104.051 37.7137 104.09 37.5832C104.158 37.3555 104.245 37.0512 104.388 36.5383C104.425 36.4078 104.488 36.13 104.529 35.9209C104.57 35.712 104.627 35.4556 104.656 35.351C104.685 35.2467 104.725 35.065 104.743 34.9476C104.762 34.8299 104.8 34.6162 104.828 34.4726C104.979 33.6868 105.116 32.6496 105.171 31.8846C105.287 30.2656 105.309 29.8254 105.311 29.1065C105.312 28.6754 105.334 28.1839 105.361 28.0141C105.387 27.8443 105.429 27.5454 105.455 27.3494C105.508 26.9334 105.606 26.4174 105.688 26.1148C105.844 25.5384 105.893 25.3674 105.937 25.2361C105.964 25.1577 105.997 25.0403 106.011 24.9751C106.026 24.9098 106.066 24.8141 106.101 24.7625C106.137 24.7109 106.166 24.6306 106.166 24.5838C106.166 24.5371 106.187 24.4616 106.212 24.4163C106.238 24.371 106.315 24.1949 106.384 24.0251C106.521 23.6855 107.022 22.6384 107.065 22.6005C107.08 22.5874 107.134 22.4913 107.186 22.3868C107.272 22.213 107.438 21.946 107.496 21.8881C107.53 21.8539 107.633 21.6864 107.671 21.6032C107.689 21.5642 107.726 21.5078 107.754 21.4778C107.782 21.4479 107.952 21.2183 108.133 20.9672C108.313 20.7165 108.479 20.5111 108.501 20.5111C108.522 20.5111 108.54 20.4914 108.54 20.4675C108.54 20.3381 110.314 18.5642 110.444 18.5642C110.468 18.5642 110.487 18.5462 110.487 18.5245C110.487 18.5026 110.692 18.3371 110.944 18.1564C111.195 17.9758 111.428 17.8014 111.462 17.7686C111.497 17.7359 111.535 17.7094 111.548 17.7094C111.56 17.7094 111.684 17.6322 111.824 17.5378C111.964 17.4435 112.121 17.3469 112.173 17.3233C112.225 17.2996 112.332 17.2395 112.411 17.1897C112.618 17.0575 113.744 16.5027 114.049 16.3825C114.193 16.326 114.353 16.2619 114.405 16.2403C114.512 16.1961 114.797 16.0898 115.046 16.0018C115.138 15.9693 115.287 15.9271 115.378 15.908C115.47 15.889 115.619 15.8499 115.711 15.8214C116.613 15.5405 117.964 15.3348 118.908 15.3348H119.547L119.624 15.1439C119.665 15.039 119.7 14.8966 119.7 14.8273C119.7 14.7581 119.731 14.4649 119.769 14.1754C120.117 11.5295 120.01 2.66227 119.614 1.31399L119.534 1.04103L119.011 1.04815C118.724 1.05214 118.072 1.08092 117.563 1.11197ZM77.3991 3.65268C77.3991 3.74415 77.4088 3.78147 77.4208 3.73588C77.4327 3.6903 77.4327 3.61536 77.4208 3.56977C77.4088 3.5239 77.3991 3.56122 77.3991 3.65268ZM77.4475 4.38894C77.4481 4.49323 77.4578 4.53055 77.4692 4.47129C77.4803 4.41231 77.48 4.32683 77.4681 4.28152C77.4561 4.23593 77.447 4.28437 77.4475 4.38894ZM77.4977 5.43349C77.498 5.5902 77.5068 5.64861 77.5174 5.56342C77.5279 5.47794 77.5276 5.34972 77.5168 5.27849C77.506 5.20697 77.4974 5.27678 77.4977 5.43349ZM61.1063 5.83894C60.959 5.96146 61.0254 5.96004 61.1815 5.83723C61.2479 5.78509 61.2835 5.74292 61.2602 5.74378C61.2371 5.74463 61.1678 5.78737 61.1063 5.83894ZM77.504 8.06908C77.504 8.8136 77.5105 9.11819 77.5185 8.74579C77.5265 8.37367 77.5265 7.76478 77.5185 7.39238C77.5105 7.02026 77.504 7.32485 77.504 8.06908ZM57.3695 8.83953C57.2663 8.95008 57.2353 8.99795 57.3005 8.94638C57.5045 8.78539 57.6478 8.63894 57.6017 8.63894C57.5772 8.63894 57.4729 8.72926 57.3695 8.83953ZM56.3269 9.87382C56.1984 10.0043 56.1084 10.1112 56.1269 10.1112C56.1605 10.1112 56.197 10.0761 56.4665 9.78635C56.6888 9.54701 56.5839 9.61283 56.3269 9.87382ZM77.4977 10.8947C77.498 11.0514 77.5068 11.1098 77.5174 11.0244C77.5279 10.9392 77.5276 10.811 77.5168 10.7394C77.506 10.6682 77.4974 10.738 77.4977 10.8947ZM77.4475 11.892C77.4481 11.9965 77.4578 12.0336 77.4692 11.9746C77.4803 11.9153 77.48 11.8299 77.4681 11.7846C77.4561 11.7393 77.447 11.7874 77.4475 11.892ZM77.3991 12.6279C77.3991 12.7194 77.4088 12.7567 77.4208 12.7111C77.4327 12.6656 77.4327 12.5906 77.4208 12.545C77.4088 12.4992 77.3991 12.5365 77.3991 12.6279ZM68.2768 18.1858C68.1298 18.3083 68.1962 18.3069 68.3523 18.1841C68.4187 18.1319 68.4541 18.0897 68.431 18.0909C68.4079 18.0917 68.3387 18.1345 68.2768 18.1858ZM66.8565 19.4318C66.6416 19.6477 66.4658 19.8401 66.4658 19.8592C66.4658 19.8785 66.6379 19.723 66.8485 19.5141C67.0588 19.305 67.2511 19.134 67.2759 19.134C67.3004 19.134 67.3206 19.1126 67.3206 19.0864C67.3206 18.9873 67.2357 19.0505 66.8565 19.4318ZM62.7783 29.3915C62.7783 29.6134 62.7865 29.7043 62.7965 29.5932C62.8065 29.4821 62.8065 29.3006 62.7965 29.1894C62.7865 29.0786 62.7783 29.1695 62.7783 29.3915ZM20.2253 29.3439C20.2253 29.4613 20.2344 29.5094 20.2458 29.4507C20.2572 29.392 20.2572 29.2957 20.2458 29.237C20.2344 29.1783 20.2253 29.2262 20.2253 29.3439ZM48.4805 29.3439C48.4805 29.4613 48.4899 29.5094 48.5013 29.4507C48.5124 29.392 48.5124 29.2957 48.5013 29.237C48.4899 29.1783 48.4805 29.2262 48.4805 29.3439ZM65.611 37.8917C65.6937 37.9963 65.772 38.0818 65.7851 38.0818C65.7982 38.0818 65.7412 37.9963 65.6583 37.8917C65.5757 37.7872 65.4973 37.7017 65.4842 37.7017C65.4711 37.7017 65.5281 37.7872 65.611 37.8917ZM66.3706 38.8075C66.3706 38.8229 66.4373 38.9064 66.5185 38.993C66.5997 39.0793 66.6445 39.1072 66.6177 39.0545C66.5675 38.9551 66.3706 38.7582 66.3706 38.8075ZM67.2254 39.6931C67.2254 39.7173 67.295 39.7851 67.3799 39.8435L67.5343 39.9498L67.3947 39.7993C67.2442 39.6369 67.2254 39.6252 67.2254 39.6931ZM70.2172 41.8534C70.2172 41.8748 70.7409 42.146 70.9178 42.2161C71.1495 42.3079 71.0047 42.2093 70.6392 42.0261C70.2477 41.8303 70.2172 41.8178 70.2172 41.8534ZM55.8764 48.4042C55.8761 48.4267 55.9613 48.5307 56.0659 48.6353C56.3118 48.8812 56.3121 48.8313 56.0665 48.5669C55.9622 48.4546 55.8767 48.3814 55.8764 48.4042ZM56.5406 49.1063C56.5406 49.1496 57.1626 49.775 57.1843 49.7536C57.1945 49.7434 57.0538 49.5869 56.8717 49.4063C56.6896 49.2256 56.5406 49.0906 56.5406 49.1063ZM14.4187 49.5411C14.4187 49.5493 14.4882 49.6188 14.5731 49.6955L14.7273 49.8351L14.5879 49.6807C14.458 49.5368 14.4187 49.5046 14.4187 49.5411ZM57.6803 50.2198C57.6803 50.2728 57.8707 50.4443 57.8986 50.4164C57.9088 50.4058 57.8641 50.3471 57.7988 50.2859C57.7339 50.2246 57.6803 50.195 57.6803 50.2198ZM62.4292 53.774C62.4292 53.7871 62.4933 53.8309 62.5717 53.8714C62.65 53.9122 62.7142 53.9344 62.7142 53.9216C62.7142 53.9084 62.65 53.8646 62.5717 53.8241C62.4933 53.7834 62.4292 53.7611 62.4292 53.774ZM64.9936 55.1257C65.0588 55.1792 65.1338 55.2228 65.1597 55.2231C65.2107 55.2234 65.1247 55.1579 64.9699 55.0778C64.9067 55.045 64.9147 55.0613 64.9936 55.1257ZM76.3303 57.7285C76.4147 57.739 76.5643 57.7393 76.6629 57.7291C76.7612 57.7188 76.6922 57.71 76.5096 57.71C76.3266 57.7097 76.246 57.7179 76.3303 57.7285Z" fill="#4484F3"/>
<path id="path1" fill-rule="evenodd" clip-rule="evenodd" d="M75.3699 1.09174C75.1348 1.11254 74.8034 1.13363 74.6336 1.13819C74.4638 1.14275 74.1327 1.1758 73.8976 1.21142C73.6626 1.24703 73.342 1.28635 73.1853 1.29832C73.0286 1.31057 72.7571 1.35103 72.5816 1.38836C72.4063 1.4254 72.2536 1.44677 72.2425 1.43565C72.2314 1.42454 72.0972 1.44762 71.9439 1.48694C71.7909 1.52626 71.5661 1.56986 71.4441 1.5841C71.3222 1.59835 71.1683 1.63083 71.1019 1.6559C71.0358 1.68098 70.8817 1.71374 70.7597 1.72828C70.6378 1.74309 70.5207 1.7656 70.4996 1.77871C70.4785 1.79182 70.3688 1.82088 70.256 1.8431C70.1434 1.86561 69.8801 1.93143 69.6713 1.98956C69.4622 2.04768 69.2698 2.09897 69.2439 2.10353C69.2177 2.10837 69.1695 2.12889 69.137 2.14912C69.1043 2.16963 69.0775 2.17476 69.0775 2.1608C69.0775 2.14684 69.0188 2.15909 68.947 2.18758C68.8752 2.21636 68.7738 2.24457 68.7213 2.25055C68.6692 2.25625 68.5623 2.28759 68.484 2.32007C68.4056 2.35256 68.3093 2.38589 68.2703 2.39444C68.231 2.4027 68.135 2.4349 68.0566 2.46567C67.9782 2.49644 67.8819 2.5295 67.8429 2.53947C67.6645 2.5842 66.9214 2.85289 66.7958 2.91814C66.7186 2.95774 66.6556 2.9774 66.6556 2.96145C66.6556 2.94578 66.5841 2.97683 66.4969 3.03097C66.4094 3.08482 66.3257 3.11702 66.3108 3.1022C66.296 3.08739 66.2342 3.10705 66.1729 3.1458C66.112 3.18455 65.8911 3.28399 65.6823 3.36662C65.4731 3.44925 65.2703 3.53587 65.231 3.55951C65.1523 3.60681 64.7463 3.80683 64.7087 3.81681C64.6548 3.83105 64.1066 4.10629 64.0012 4.17183C63.9385 4.21086 63.8582 4.24705 63.8228 4.25246C63.7875 4.25759 63.62 4.34934 63.4501 4.45676C63.2803 4.56389 63.1416 4.63996 63.1416 4.62543C63.1416 4.61119 63.0236 4.67501 62.8794 4.76733C62.7353 4.85965 62.6008 4.93487 62.5803 4.93487C62.56 4.93487 62.5164 4.96165 62.484 4.99442C62.4512 5.0269 62.4096 5.05397 62.3914 5.05454C62.3731 5.05511 62.2255 5.14571 62.0637 5.25627C61.9021 5.36682 61.7525 5.45885 61.7315 5.46056C61.7104 5.46227 61.5651 5.55915 61.4083 5.67597C61.2516 5.79279 61.0858 5.90077 61.0402 5.91588C60.9946 5.93098 60.957 5.96203 60.957 5.98511C60.957 6.00819 60.9325 6.02728 60.9026 6.02728C60.8727 6.02728 60.757 6.10194 60.6453 6.1934C60.5339 6.28486 60.4194 6.35951 60.3912 6.35951C60.3629 6.35951 60.3399 6.37632 60.3399 6.39684C60.3399 6.41735 60.2703 6.47434 60.1854 6.52363C60.1005 6.57292 60.0136 6.64216 59.9925 6.67749C59.9715 6.71254 59.935 6.72963 59.9119 6.71539C59.8885 6.70114 59.8455 6.73448 59.8159 6.78975C59.7862 6.84503 59.7515 6.87951 59.7384 6.86611C59.7253 6.85301 59.6783 6.87808 59.6338 6.92168C59.5894 6.96498 59.4825 7.05417 59.3962 7.11942C59.3098 7.18467 59.2144 7.2596 59.1839 7.28553C59.1537 7.31174 59.0218 7.41688 58.8913 7.51917C58.7608 7.62146 58.6086 7.74968 58.5534 7.8041C58.4981 7.85852 58.328 8.00982 58.175 8.14032C57.3849 8.81617 56.2229 9.98067 55.624 10.6978C51.8655 15.1974 49.8972 19.3409 48.945 24.7565C47.483 33.071 50.1807 42.1637 55.9864 48.4922C56.3896 48.9319 57.488 50.0488 57.5171 50.0488C57.5302 50.0488 57.6456 50.1502 57.7735 50.2742C57.9017 50.3984 58.12 50.5961 58.259 50.7135C58.3978 50.8309 58.5682 50.9859 58.6374 51.0577C58.7067 51.1295 58.7779 51.1885 58.7961 51.1885C58.8249 51.1885 58.9389 51.2834 59.1979 51.5244C59.2423 51.5658 59.3144 51.6131 59.358 51.6299C59.4016 51.6467 59.4375 51.6837 59.4375 51.7122C59.4375 51.7407 59.4591 51.7507 59.4854 51.7344C59.5116 51.7182 59.5461 51.7381 59.5617 51.7789C59.5774 51.8199 59.6184 51.8533 59.6532 51.8533C59.6877 51.8533 59.7295 51.8963 59.7464 51.949C59.7632 52.0014 59.7954 52.033 59.8179 52.0191C59.8407 52.0051 59.8763 52.0214 59.8977 52.0556C59.9187 52.0895 60.0695 52.202 60.2324 52.3057C60.3954 52.4094 60.5291 52.5103 60.5293 52.53C60.5296 52.5496 60.5521 52.5656 60.5792 52.5656C60.6066 52.5656 60.7502 52.6565 60.8986 52.7673C61.1958 52.9896 61.4511 53.1554 61.6001 53.2238C61.6534 53.248 61.7255 53.3024 61.7602 53.3443C61.795 53.3862 61.8446 53.4204 61.8702 53.4204C61.8959 53.4204 62.0124 53.485 62.1295 53.564C62.2463 53.6429 62.4258 53.75 62.5281 53.8022C62.6304 53.8546 62.7142 53.9193 62.7142 53.9466C62.7142 53.9737 62.7301 53.9859 62.7498 53.974C62.7695 53.962 62.8709 54.0028 62.9755 54.0649C63.2875 54.2506 63.543 54.3894 63.5769 54.3917C63.5943 54.3928 63.624 54.4094 63.643 54.4284C63.6767 54.4621 64.8511 55.0487 64.8987 55.0556C64.9118 55.0576 65.072 55.1302 65.2549 55.2168C65.4375 55.3037 65.6512 55.4023 65.7296 55.436C65.8079 55.4699 65.9362 55.5251 66.0145 55.559C66.0929 55.5929 66.1783 55.6263 66.2046 55.6331C66.3433 55.6699 66.5881 55.7762 66.6134 55.8106C66.6294 55.8326 66.657 55.8462 66.675 55.8414C66.7075 55.8323 66.9303 55.9092 67.1069 55.9904C67.1591 56.0146 67.2477 56.0429 67.3041 56.0534C67.3602 56.0639 67.4725 56.1067 67.5534 56.1486C67.6343 56.1904 67.7004 56.2141 67.7004 56.2013C67.7004 56.1884 67.7967 56.2192 67.9141 56.2697C68.0315 56.3201 68.1278 56.3511 68.1278 56.3386C68.1278 56.3261 68.2008 56.3463 68.2902 56.3836C68.3794 56.421 68.4649 56.4392 68.48 56.4238C68.4954 56.4087 68.5076 56.4221 68.5076 56.4537C68.5076 56.4853 68.5344 56.5059 68.5672 56.4996C68.5997 56.493 68.7119 56.5178 68.8165 56.5543C68.9208 56.5908 69.0276 56.6227 69.0538 56.625C69.1048 56.6295 69.4243 56.7181 69.6949 56.8025C69.7864 56.8312 69.9146 56.8609 69.9799 56.8686C70.0451 56.8763 70.1927 56.9159 70.3078 56.9566C70.4229 56.9971 70.5264 57.0213 70.5375 57.0099C70.5489 56.9988 70.664 57.021 70.7936 57.0595C70.9233 57.0979 71.0979 57.1398 71.1814 57.1526C71.4757 57.1971 71.525 57.2071 71.7299 57.2635C71.8436 57.2948 71.9464 57.3108 71.9584 57.2988C71.9704 57.2866 72.1126 57.3079 72.2741 57.3464C72.4357 57.3846 72.6855 57.4256 72.8292 57.4376C72.9728 57.4493 73.2187 57.4817 73.3754 57.5099C73.5321 57.5382 73.7991 57.5698 73.9689 57.58C74.1387 57.5906 74.4911 57.6236 74.7524 57.6538C75.0137 57.684 75.628 57.7108 76.1178 57.7134L77.0085 57.7182L76.9965 50.6446L76.9843 43.5707L76.5332 43.5567C76.2851 43.549 75.8899 43.5191 75.6548 43.4903C75.4197 43.4615 75.1206 43.4293 74.9898 43.4188C74.8593 43.408 74.6028 43.3666 74.4199 43.327C74.2373 43.2872 73.9914 43.2333 73.874 43.2077C73.7563 43.1817 73.5962 43.1495 73.5178 43.1361C73.4395 43.1227 73.2899 43.0826 73.1853 43.047C72.9901 42.9806 72.6425 42.8837 72.5804 42.8783C72.5613 42.8766 72.4491 42.8338 72.3311 42.7834C72.2131 42.7327 72.1168 42.7008 72.1168 42.7122C72.1168 42.7239 71.9618 42.6626 71.7726 42.5763C71.5832 42.4899 71.4128 42.4147 71.3937 42.409C71.1441 42.3344 70.3224 41.9363 70.1343 41.7987C70.0494 41.7369 69.9799 41.7015 69.9799 41.7203C69.9799 41.7394 69.9266 41.7047 69.861 41.6434C69.7958 41.5819 69.7425 41.5494 69.7425 41.571C69.7425 41.5927 69.7049 41.5801 69.6593 41.5434C69.6137 41.5063 69.5015 41.4351 69.41 41.3853C69.3185 41.3351 69.2331 41.2813 69.22 41.2653C69.2069 41.2493 69.0094 41.1103 68.7809 40.9564C68.5524 40.8023 68.3652 40.659 68.3652 40.6376C68.3652 40.6159 68.3441 40.5986 68.3182 40.5986C68.2669 40.5986 68.0754 40.4476 67.9116 40.278C67.8546 40.2193 67.7916 40.1712 67.7714 40.1712C67.7301 40.1712 67.658 40.1034 66.9169 39.3654C66.2276 38.6793 65.3954 37.7017 65.5002 37.7017C65.5204 37.7017 65.4897 37.6686 65.4315 37.6279C65.3734 37.5872 65.3261 37.523 65.3261 37.4854C65.3261 37.4478 65.3085 37.4168 65.2874 37.4168C65.266 37.4168 65.1982 37.3262 65.1364 37.215C65.0748 37.1039 65.0116 37.0025 64.9962 36.9894C64.9409 36.9435 64.7828 36.6805 64.7916 36.6497C64.7964 36.6326 64.7694 36.5928 64.7309 36.5608C64.6924 36.5289 64.6611 36.4751 64.6611 36.4409C64.6611 36.4067 64.6329 36.3506 64.5984 36.3161C64.5198 36.2374 63.9964 35.1815 63.9964 35.1014C63.9964 35.069 63.9773 35.0424 63.9539 35.0424C63.9197 35.0424 63.8502 34.8607 63.8448 34.7575C63.8442 34.7444 63.8 34.6484 63.7468 34.5438C63.6935 34.4393 63.6505 34.3432 63.6513 34.3301C63.6519 34.317 63.6319 34.2529 63.6066 34.1877C63.5812 34.1224 63.5536 34.0369 63.5447 33.9976C63.5362 33.9586 63.4952 33.8463 63.4536 33.7483C63.4117 33.6506 63.3883 33.5702 63.4014 33.5702C63.4145 33.5702 63.384 33.4659 63.3336 33.338C63.2832 33.2104 63.2518 33.0961 63.2635 33.0844C63.2755 33.0725 63.2518 32.9687 63.2111 32.8536C63.1703 32.7385 63.1296 32.5909 63.1205 32.5257C63.1114 32.4604 63.072 32.2747 63.0327 32.1131C62.9934 31.9515 62.9695 31.8111 62.9797 31.8011C62.9897 31.7911 62.9661 31.635 62.9273 31.4538C62.7595 30.6696 62.7458 28.313 62.9039 27.4918C62.9316 27.3482 62.9643 27.126 62.9769 26.9978C62.9891 26.8698 63.0228 26.6778 63.0515 26.5709C63.0803 26.4641 63.1111 26.3231 63.1196 26.2575C63.1285 26.192 63.1692 26.0444 63.2102 25.9293C63.2516 25.8142 63.2749 25.7099 63.2627 25.6976C63.2504 25.6854 63.2718 25.5999 63.3102 25.5079C63.3487 25.4158 63.3915 25.2771 63.4051 25.1996C63.4185 25.1221 63.4613 24.9981 63.4994 24.9243C63.5376 24.8503 63.569 24.7651 63.569 24.7351C63.569 24.7052 63.5986 24.6132 63.6345 24.5311C63.7473 24.2741 63.8169 24.0772 63.8 24.0627C63.7912 24.0553 63.8302 23.9741 63.8867 23.8826C63.9431 23.7912 63.9915 23.7009 63.9944 23.6815C63.9969 23.6624 64.0408 23.5498 64.0912 23.4316C64.142 23.3134 64.1864 23.2008 64.1901 23.1817C64.1938 23.1623 64.2326 23.0934 64.2762 23.0279C64.32 22.9626 64.4044 22.813 64.4636 22.6956C64.5229 22.5779 64.6127 22.4178 64.6634 22.3395C64.7138 22.2611 64.7699 22.1648 64.7882 22.1258C64.8372 22.0195 65.0104 21.7745 65.0648 21.7346C65.0965 21.7115 65.0965 21.6992 65.0648 21.6984C65.0375 21.6975 65.0398 21.6818 65.07 21.6619C65.099 21.6428 65.1583 21.5576 65.2019 21.4727C65.2455 21.3878 65.3019 21.3183 65.3273 21.3183C65.3526 21.3183 65.3691 21.3023 65.3634 21.2827C65.3501 21.2345 65.6669 20.796 65.715 20.796C65.7361 20.796 65.7535 20.7632 65.7535 20.7233C65.7535 20.6832 65.7854 20.6382 65.8247 20.6233C65.8638 20.6082 65.896 20.5738 65.896 20.5464C65.896 20.5191 65.9706 20.4242 66.0621 20.3356C66.1536 20.2467 66.2282 20.1552 66.2282 20.1324C66.2282 20.1093 66.2818 20.0486 66.347 19.9971C66.4123 19.9458 66.4658 19.8842 66.4658 19.8603C66.4658 19.8073 67.3728 18.9106 67.3927 18.944C67.4004 18.9571 67.4531 18.9089 67.5095 18.8371C67.5662 18.7653 67.6295 18.7066 67.6506 18.7066C67.6717 18.7066 67.7754 18.6263 67.8814 18.5285C68.1201 18.3071 68.1469 18.2858 68.4638 18.0601C68.6054 17.9593 68.7626 17.8393 68.8128 17.7934C68.8632 17.7478 68.9433 17.698 68.9909 17.6829C69.0387 17.6678 69.0775 17.6379 69.0775 17.6168C69.0775 17.5954 69.1151 17.5652 69.1607 17.5498C69.2063 17.5341 69.4149 17.4133 69.6237 17.2808C70.0109 17.0355 71.1227 16.4739 71.5946 16.285C72.0684 16.0952 72.6288 15.8935 72.6496 15.9052C72.6571 15.9095 72.7727 15.8693 72.9069 15.8166C73.0414 15.7636 73.1608 15.73 73.1728 15.7419C73.1847 15.7539 73.2688 15.7325 73.3597 15.6944C73.4509 15.6565 73.609 15.6151 73.7113 15.6026C73.8139 15.5901 73.9541 15.5582 74.0233 15.5317C74.0922 15.5052 74.2689 15.4724 74.4159 15.4587C74.5629 15.4453 74.7023 15.4222 74.7256 15.408C74.7895 15.3684 76.1762 15.2413 76.5569 15.2399C77.045 15.2379 77.0868 15.2185 77.1757 14.951C77.2179 14.8239 77.2424 14.7031 77.2299 14.6829C77.2176 14.6629 77.2376 14.4754 77.2746 14.2663C77.3114 14.0574 77.3518 13.6514 77.3647 13.3642C77.3772 13.0767 77.412 12.4997 77.4416 12.082C77.5128 11.0839 77.512 5.21695 77.4404 4.19889C77.4111 3.7809 77.3783 3.22529 77.3672 2.9643C77.3564 2.70302 77.3245 2.34743 77.2966 2.17419C77.2683 2.00067 77.2347 1.74594 77.2216 1.60832C77.2085 1.47042 77.1592 1.29177 77.1122 1.21113L77.0267 1.06468L76.4119 1.05926C76.0739 1.05613 75.6049 1.07066 75.3699 1.09174Z" fill="#34AC54"/>
<path id="path2" fill-rule="evenodd" clip-rule="evenodd" d="M32.3693 1.0447C32.1736 1.06835 31.7676 1.10795 31.467 1.13303C31.1666 1.15839 30.7714 1.20255 30.5885 1.23161C30.4056 1.26068 30.0423 1.31681 29.7813 1.3567C29.52 1.3963 29.1567 1.45956 28.9738 1.49688C28.2777 1.63906 27.9244 1.71799 27.7868 1.76187C27.7085 1.78694 27.548 1.8254 27.4306 1.84763C27.313 1.86985 27.0565 1.93396 26.8608 1.98981C26.6648 2.04594 26.4297 2.11318 26.3382 2.1394C26.2468 2.16561 26.0972 2.20322 26.006 2.22317C25.9145 2.24311 25.7729 2.2944 25.6914 2.33685C25.61 2.37959 25.5319 2.40296 25.5179 2.38899C25.504 2.37532 25.4051 2.40865 25.2982 2.46308C25.1911 2.51778 25.1036 2.55254 25.1036 2.54029C25.1036 2.52804 24.9595 2.57192 24.7831 2.63802C24.6067 2.70384 24.3939 2.77821 24.3098 2.80328C24.2261 2.82835 24.1446 2.86967 24.1292 2.89474C24.1135 2.91982 24.0679 2.94033 24.0277 2.94033C23.9876 2.94033 23.8764 2.97452 23.7813 3.01641C23.6858 3.05829 23.565 3.10986 23.5129 3.13095C23.3807 3.18423 22.9715 3.36089 22.8006 3.4381C22.545 3.55378 20.8078 4.4137 20.7348 4.46071C20.6955 4.48607 20.4285 4.63794 20.141 4.79807C19.8538 4.95848 19.6116 5.10836 19.6028 5.13087C19.5942 5.15366 19.5609 5.17246 19.5287 5.17246C19.4968 5.17246 19.4241 5.21549 19.3674 5.2682C19.3107 5.3212 19.2538 5.36451 19.2407 5.36508C19.1874 5.3665 18.9306 5.53119 18.9304 5.56424C18.9304 5.58362 18.9079 5.59986 18.8808 5.59986C18.8247 5.59986 18.5346 5.79503 18.5107 5.84917C18.5021 5.86855 18.4739 5.88479 18.4485 5.88479C18.4089 5.88479 18.0824 6.11017 17.8992 6.26403C17.8679 6.29053 17.8294 6.31218 17.8143 6.31218C17.7855 6.31218 17.7049 6.37344 17.5536 6.50992C17.5054 6.55351 17.4539 6.57716 17.4393 6.56263C17.4248 6.54782 17.3994 6.57118 17.3829 6.61392C17.3664 6.65694 17.3254 6.69199 17.2917 6.69199C17.2581 6.69199 17.2185 6.72419 17.2034 6.76322C17.1883 6.80254 17.1453 6.83446 17.1074 6.83446C17.0695 6.83446 17.0313 6.85127 17.0228 6.87207C17.0139 6.89258 16.8034 7.07095 16.5543 7.26812C16.3056 7.46529 16.0457 7.67813 15.9768 7.7411C15.9078 7.80407 15.7058 7.98357 15.5277 8.14028C15.3497 8.297 15.0653 8.55885 14.8955 8.72211C14.726 8.88537 14.5692 9.019 14.5476 9.019C14.5259 9.019 14.5214 9.04037 14.5376 9.0663C14.5536 9.09252 14.5459 9.11389 14.5202 9.11389C14.4949 9.11389 14.392 9.19709 14.292 9.29909C13.8578 9.74101 13.4244 10.204 13.1831 10.4838C13.04 10.6497 12.8785 10.8312 12.8243 10.8876C12.7702 10.9437 12.6206 11.1169 12.4918 11.2725C12.3633 11.4281 12.23 11.5882 12.1955 11.6287C12.161 11.6688 11.9741 11.9156 11.7801 12.1769C11.5863 12.4382 11.406 12.6775 11.3797 12.7091C11.3535 12.7407 11.3322 12.7886 11.3322 12.816C11.3322 12.8433 11.3154 12.8655 11.2948 12.8655C11.2743 12.8655 11.2202 12.9288 11.1743 13.0063C11.1287 13.0835 11.0646 13.1744 11.0318 13.208C10.9991 13.2417 10.9207 13.3545 10.858 13.4591C10.7951 13.5636 10.7307 13.6596 10.7147 13.6727C10.6988 13.6859 10.6344 13.7819 10.5714 13.8864C10.5087 13.991 10.4309 14.1033 10.399 14.136C10.3671 14.1688 10.3275 14.2383 10.311 14.2905C10.2945 14.3423 10.2611 14.3851 10.2366 14.3851C10.2124 14.3851 10.1924 14.405 10.1924 14.4292C10.1924 14.4717 9.86535 15.049 9.81378 15.0974C9.8001 15.1105 9.73257 15.2279 9.6639 15.3587C9.59524 15.4892 9.45818 15.7456 9.3596 15.9285C9.06726 16.4699 8.59827 17.4301 8.39711 17.8991C8.34668 18.0168 8.26177 18.2091 8.20849 18.3265C8.15492 18.4442 8.04323 18.722 7.96031 18.9439C7.8774 19.1659 7.7771 19.4078 7.73778 19.4816C7.69846 19.5551 7.67909 19.628 7.69476 19.644C7.71043 19.6597 7.69476 19.7169 7.66 19.7711C7.60016 19.8648 7.44573 20.3025 7.41296 20.4709C7.4047 20.5139 7.36424 20.6145 7.32293 20.694C7.2819 20.7737 7.24799 20.8815 7.24799 20.9339C7.24799 20.986 7.22947 21.0781 7.20668 21.1379C7.18388 21.198 7.12946 21.3752 7.08558 21.5319C7.0417 21.6887 6.97474 21.916 6.93685 22.0371C6.89924 22.1582 6.86818 22.2984 6.86818 22.3491C6.86818 22.3998 6.83798 22.5357 6.80094 22.6514C6.71261 22.9281 6.50689 23.906 6.37725 24.6662C5.93276 27.2713 5.87805 30.3528 6.22909 33.0479C6.32482 33.7833 6.43395 34.4387 6.51572 34.7686C6.55276 34.9185 6.58325 35.0874 6.58325 35.1444C6.58325 35.2011 6.61402 35.3564 6.65135 35.4895C6.68896 35.6222 6.75563 35.9021 6.79951 36.1109C6.84368 36.3198 6.90636 36.5656 6.93913 36.6571C6.97189 36.7483 7.02347 36.9192 7.05395 37.0369C7.08444 37.1543 7.14855 37.4019 7.19642 37.5868C7.24429 37.7715 7.30897 37.9706 7.34031 38.029C7.37165 38.0875 7.40527 38.1775 7.41524 38.2293C7.45001 38.4097 7.60387 38.8588 7.75858 39.2317C7.80417 39.342 7.84207 39.4434 7.84235 39.4574C7.84292 39.4865 7.94293 39.7503 8.03183 39.9574C8.06545 40.0358 8.11531 40.1535 8.14267 40.2187C8.2914 40.5723 8.41136 40.8444 8.54043 41.1208C8.72962 41.5265 9.2707 42.6133 9.40319 42.8543C9.46075 42.9586 9.57102 43.1618 9.64823 43.3054C9.72545 43.449 9.83885 43.6413 9.90039 43.7327C9.96165 43.8242 10.0315 43.9416 10.0554 43.994C10.0793 44.0462 10.1409 44.153 10.1924 44.2314C10.244 44.3097 10.3113 44.422 10.342 44.4807C10.3725 44.5394 10.4155 44.5875 10.4375 44.5875C10.4594 44.5875 10.4774 44.6078 10.4774 44.6326C10.4774 44.6573 10.5415 44.7727 10.6198 44.8887C10.6982 45.005 10.7623 45.1235 10.7623 45.1526C10.7623 45.1813 10.7814 45.205 10.805 45.205C10.8284 45.205 10.8922 45.2799 10.9464 45.3719C11.0005 45.4637 11.0677 45.5651 11.096 45.5973C11.1239 45.6295 11.2535 45.8056 11.384 45.9885C11.5142 46.1712 11.6895 46.4048 11.7732 46.5074C11.857 46.61 12.0111 46.8137 12.1157 46.9601C12.22 47.1066 12.3482 47.2699 12.4006 47.3229C12.4528 47.3759 12.6024 47.5442 12.7329 47.697C12.8637 47.8497 13.0078 48.0138 13.0534 48.062C13.0993 48.1098 13.1366 48.1591 13.1366 48.1714C13.1366 48.2366 14.2817 49.3977 15.0587 50.12C15.3397 50.381 15.6044 50.6277 15.6471 50.6679C15.6899 50.7081 15.8637 50.8577 16.0335 51.0004C16.203 51.1429 16.3694 51.2856 16.403 51.3173C16.4364 51.3489 16.5595 51.4432 16.676 51.527C16.7928 51.6107 16.8883 51.6971 16.8883 51.7187C16.8883 51.7404 16.9179 51.7583 16.9544 51.7583C16.9909 51.7583 17.0333 51.7917 17.049 51.8324C17.0646 51.8735 17.098 51.894 17.1228 51.8786C17.1478 51.8632 17.1926 51.8957 17.2219 51.951C17.2516 52.0062 17.2866 52.0407 17.2997 52.0273C17.3128 52.0142 17.363 52.0393 17.4111 52.0829C17.5784 52.2336 17.6442 52.2806 17.6895 52.2806C17.7146 52.2806 17.7422 52.2974 17.7508 52.3179C17.7596 52.3385 17.9482 52.4821 18.1705 52.6368C18.3924 52.7915 18.581 52.9351 18.5899 52.9556C18.5984 52.9761 18.6241 52.9929 18.6469 52.9929C18.6694 52.9929 18.7799 53.0539 18.8922 53.1283C19.5806 53.5847 20.1043 53.9047 20.3063 53.9925C20.3712 54.0207 20.4354 54.0583 20.4487 54.0762C20.4715 54.1059 20.5986 54.1777 20.9246 54.3449C20.9901 54.3783 21.1289 54.4495 21.2334 54.5031C21.9609 54.8755 22.7196 55.235 23.1684 55.42C23.5451 55.575 23.8357 55.7015 23.9277 55.7508C23.973 55.775 24.0488 55.7946 24.0961 55.7946C24.1437 55.7946 24.2027 55.8126 24.2275 55.8345C24.3084 55.9058 25.4618 56.3118 25.5909 56.3144C25.6108 56.3149 25.692 56.3488 25.7715 56.3899C25.8513 56.4312 25.9738 56.4725 26.0442 56.4816C26.1146 56.491 26.2362 56.5235 26.3146 56.554C26.5089 56.6295 27.8786 56.9845 28.143 57.0278C28.2604 57.0472 28.4527 57.0862 28.5704 57.1144C31.3122 57.774 35.7469 57.8926 38.6227 57.3831C38.8361 57.3452 39.0575 57.3145 39.1144 57.3145C39.1711 57.3145 39.3703 57.2811 39.5569 57.2404C39.7436 57.1996 40.0564 57.1335 40.2524 57.0934C40.7744 56.9868 41.2044 56.8802 42.0569 56.6463C42.2529 56.5927 42.4877 56.5323 42.5792 56.5124C42.6706 56.4924 42.7963 56.4488 42.8581 56.4155C42.9202 56.3822 43.0165 56.348 43.0718 56.3394C43.226 56.3161 43.5972 56.191 43.7557 56.1089C43.8334 56.0687 43.9095 56.0488 43.9252 56.0642C43.9409 56.0799 44.0067 56.0576 44.0719 56.0149C44.1372 55.9722 44.2286 55.9365 44.2754 55.9357C44.3218 55.9348 44.4016 55.9029 44.4523 55.8645C44.503 55.826 44.5745 55.7946 44.6113 55.7946C44.6734 55.7946 44.7435 55.7679 45.1911 55.5727C45.2826 55.5331 45.4213 55.4735 45.4997 55.4405C45.5781 55.4077 45.6957 55.3579 45.761 55.3296C45.8262 55.3017 46.2796 55.0852 46.7685 54.8481C47.2571 54.6113 47.676 54.4176 47.6988 54.4176C47.7219 54.4176 47.7797 54.3748 47.827 54.3224C47.8743 54.27 47.9222 54.2361 47.9333 54.2472C47.9586 54.2726 48.859 53.7511 48.9063 53.6839C48.9254 53.6565 48.9416 53.6534 48.9419 53.6771C48.9425 53.7007 48.9801 53.6879 49.0257 53.6486C49.0716 53.6092 49.1408 53.5631 49.1801 53.5457C49.2192 53.5283 49.3155 53.4719 49.3938 53.4203C49.4722 53.3688 49.5844 53.3012 49.6431 53.2707C49.7018 53.2403 49.75 53.2021 49.75 53.1861C49.75 53.1702 49.8301 53.1149 49.9281 53.0636C50.0261 53.012 50.1167 52.9582 50.1298 52.9436C50.1429 52.9291 50.3352 52.7906 50.5572 52.6362C50.7791 52.4818 50.9681 52.3385 50.9769 52.3179C50.9854 52.2974 51.0228 52.2806 51.0598 52.2806C51.0968 52.2806 51.127 52.2592 51.127 52.233C51.127 52.2071 51.155 52.1857 51.1892 52.1857C51.2231 52.1857 51.3293 52.1139 51.4254 52.0262C51.5211 51.9384 51.6103 51.8772 51.6234 51.8903C51.6365 51.9037 51.6607 51.8792 51.6772 51.8364C51.6938 51.7934 51.724 51.7583 51.7448 51.7583C51.7807 51.7583 51.9921 51.5905 52.179 51.4139C52.2272 51.3683 52.2881 51.331 52.3144 51.331C52.3406 51.331 52.3619 51.3139 52.3619 51.2931C52.3619 51.2723 52.4634 51.1771 52.5873 51.0814C53.0304 50.74 53.8399 49.9884 54.5647 49.2456C55.3733 48.417 55.4152 48.3725 55.5332 48.2227L55.6386 48.0887L55.3856 47.7984C50.2318 41.8864 47.7997 33.7503 48.8026 25.7777C49.4893 20.3187 51.8918 14.9615 55.4907 10.8645L55.6839 10.6445L55.4848 10.4134C55.0101 9.8624 53.951 8.80246 53.3828 8.30953C53.2261 8.17362 53.0908 8.04255 53.0819 8.01833C53.0734 7.99412 53.0455 7.97417 53.0201 7.97417C52.9948 7.97417 52.9164 7.91377 52.846 7.83997C52.7757 7.76646 52.6112 7.622 52.4807 7.51942C52.35 7.41685 52.2132 7.30459 52.1764 7.26983C52.14 7.23506 51.9904 7.1191 51.8442 7.01225C51.6978 6.90512 51.5613 6.78944 51.5402 6.75467C51.5194 6.7202 51.4735 6.69199 51.4385 6.69199C51.4034 6.69199 51.3613 6.65694 51.3447 6.61392C51.3282 6.57118 51.3029 6.54782 51.2883 6.56263C51.2635 6.58714 51.1592 6.51647 51.0065 6.37145C50.972 6.33868 50.9228 6.31218 50.8971 6.31218C50.8712 6.31218 50.843 6.29594 50.8344 6.27656C50.8256 6.2569 50.7435 6.18795 50.6524 6.12299C50.3805 5.93066 49.4557 5.31493 49.4383 5.31493C49.4294 5.31493 49.3274 5.25082 49.2112 5.17246C49.0952 5.09411 48.9764 5.03 48.9476 5.03C48.9189 5.03 48.8952 5.01262 48.8952 4.99182C48.8952 4.95905 48.5815 4.7804 48.053 4.512C47.9809 4.47553 47.9111 4.43079 47.8979 4.41313C47.8848 4.39546 47.7033 4.29944 47.4942 4.2C47.2854 4.10056 47.1036 4.00426 47.0907 3.98574C47.0776 3.96722 47.0081 3.93787 46.9363 3.9202C46.8645 3.90282 46.8058 3.86749 46.8058 3.84185C46.8058 3.8162 46.7753 3.79512 46.7383 3.79512C46.7012 3.79512 46.5679 3.74412 46.4417 3.68143C46.3155 3.61903 46.1052 3.52187 45.9747 3.46603C45.8442 3.40989 45.6789 3.33182 45.6077 3.2925C45.5367 3.25347 45.4726 3.22583 45.4652 3.23124C45.4527 3.24065 45.2239 3.14605 44.9298 3.00985C44.8515 2.97338 44.7284 2.92979 44.6563 2.91298C44.5842 2.89617 44.5136 2.8634 44.4993 2.84032C44.4851 2.81696 44.4309 2.79787 44.3794 2.79787C44.3278 2.79787 44.2338 2.76396 44.1705 2.72265C44.1073 2.68133 44.0372 2.65882 44.0147 2.67278C43.9919 2.68674 43.905 2.65654 43.8215 2.60554C43.7377 2.55454 43.6383 2.51294 43.6007 2.51294C43.563 2.51294 43.4622 2.48302 43.3764 2.44655C43.2906 2.40979 43.0921 2.34284 42.9353 2.29725C42.7786 2.25194 42.5971 2.19809 42.5319 2.17786C42.4228 2.14367 42.2831 2.10464 41.6059 1.91886C41.2184 1.81258 40.8083 1.712 40.6559 1.68607C40.5776 1.67297 40.257 1.61028 39.9436 1.54703C38.921 1.34103 38.1574 1.22791 36.8094 1.0826C36.1717 1.01393 32.8622 0.985719 32.3693 1.0447ZM35.646 15.2652C36.0509 15.306 36.5242 15.3701 36.6977 15.4083C36.8709 15.4461 37.0615 15.4772 37.1208 15.4772C37.1801 15.4772 37.3373 15.508 37.4701 15.5453C37.6029 15.5829 37.8505 15.6493 38.0203 15.6932C38.5483 15.8297 38.7551 15.8963 39.3737 16.1294C39.7034 16.2536 39.7456 16.2713 40.1217 16.4437C40.3243 16.5366 40.4898 16.6012 40.4898 16.5876C40.4898 16.5742 40.5488 16.6018 40.6206 16.6494C40.8061 16.7719 40.8975 16.8241 41.2733 17.0224C41.4563 17.119 41.6378 17.223 41.6771 17.254C41.7161 17.2851 41.8284 17.3515 41.9264 17.4019C42.0241 17.4523 42.1045 17.5099 42.1045 17.5301C42.1045 17.5503 42.1281 17.5669 42.1569 17.5669C42.1857 17.5669 42.2903 17.631 42.3894 17.7093C42.4883 17.7877 42.5837 17.8518 42.6014 17.8518C42.6191 17.8518 42.6618 17.8783 42.696 17.9111C42.7997 18.0094 42.959 18.1367 42.9787 18.1367C43.0043 18.1367 43.2764 18.3681 43.4656 18.5504C43.5528 18.6345 43.624 18.6903 43.624 18.6741C43.624 18.6582 43.675 18.6963 43.7374 18.759C43.7998 18.8214 44.0776 19.0947 44.3549 19.3656C44.6318 19.6369 44.8586 19.8648 44.8586 19.8728C44.8586 19.8805 44.9358 19.9685 45.0301 20.0683C45.1245 20.1683 45.2669 20.3407 45.347 20.4518C45.4268 20.5626 45.5111 20.6535 45.5345 20.6535C45.5575 20.6535 45.5632 20.6752 45.547 20.7014C45.5308 20.7276 45.5507 20.7621 45.5914 20.7775C45.6322 20.7931 45.7123 20.8891 45.7695 20.9909C45.8268 21.0926 45.8909 21.1758 45.9123 21.1758C45.9334 21.1758 45.951 21.198 45.951 21.2254C45.951 21.2527 45.9735 21.3006 46.0009 21.3322C46.0285 21.3638 46.1397 21.5285 46.2479 21.6983C46.3562 21.8679 46.4565 22.0175 46.471 22.0306C46.5192 22.0747 47.1774 23.3538 47.2526 23.5504C47.2677 23.5894 47.2996 23.6535 47.3238 23.6928C47.3951 23.8088 47.5181 24.1066 47.5181 24.1635C47.5181 24.1926 47.5372 24.2536 47.5606 24.2989C47.6011 24.3772 47.6703 24.5585 47.8008 24.9274C47.833 25.0189 47.8811 25.1899 47.9074 25.3073C47.9339 25.4249 47.9746 25.5415 47.998 25.5663C48.0213 25.591 48.0404 25.6532 48.0404 25.7044C48.0404 25.7557 48.0709 25.9065 48.1082 26.0392C48.2034 26.3783 48.3296 26.9815 48.3336 27.1168C48.3356 27.1795 48.3678 27.4069 48.4054 27.6223C48.5066 28.2038 48.5031 30.5009 48.4003 31.0862C48.3578 31.3261 48.3288 31.5398 48.3356 31.5612C48.3678 31.6632 47.9971 33.185 47.8202 33.6773C47.7848 33.7753 47.7578 33.8668 47.7595 33.8805C47.7632 33.9081 47.5455 34.4971 47.4355 34.7575C47.3264 35.0156 47.2227 35.2493 47.1825 35.3273C47.1623 35.3667 47.0321 35.6228 46.893 35.8972C46.754 36.1713 46.6135 36.424 46.5804 36.4585C46.5477 36.493 46.5209 36.5409 46.5209 36.5651C46.5209 36.589 46.4254 36.7477 46.3092 36.9178C46.1926 37.0876 46.1106 37.227 46.1265 37.227C46.1425 37.227 46.1095 37.2669 46.0533 37.3156C45.9969 37.3643 45.951 37.4267 45.951 37.4541C45.951 37.4814 45.9348 37.511 45.9154 37.5196C45.8958 37.5284 45.796 37.6583 45.6937 37.8085C45.5915 37.9587 45.49 38.0818 45.4681 38.0818C45.4464 38.0818 45.4285 38.1137 45.4285 38.153C45.4285 38.192 45.4065 38.2242 45.3795 38.2242C45.3527 38.2242 45.3188 38.255 45.3042 38.2926C45.2621 38.4032 44.9213 38.7761 44.3363 39.3531C43.7257 39.9549 43.7047 39.9745 43.3391 40.2692C43.1955 40.3851 43.0351 40.519 42.9829 40.5669C42.9308 40.6148 42.8291 40.6849 42.7573 40.7225C42.6855 40.7601 42.6268 40.8094 42.6268 40.8316C42.6268 40.8541 42.5894 40.8852 42.5436 40.9011C42.4692 40.9268 41.9204 41.2898 41.7922 41.3983C41.764 41.4223 41.6945 41.4565 41.6378 41.4744C41.5811 41.4924 41.5346 41.5285 41.5346 41.5542C41.5346 41.5801 41.515 41.5892 41.4907 41.5744C41.4668 41.5596 41.4187 41.5753 41.3839 41.6092C41.2682 41.722 39.8946 42.403 39.7823 42.403C39.7578 42.403 39.6772 42.4335 39.6034 42.4705C39.3806 42.5822 38.8378 42.7808 38.4477 42.8931C37.7992 43.08 37.2587 43.2099 36.9282 43.2583C36.7846 43.2794 36.5281 43.319 36.3583 43.3464C35.1799 43.5367 33.5617 43.5364 32.3693 43.3458C32.1995 43.3187 31.9431 43.2794 31.7995 43.2583C31.1501 43.1632 29.2149 42.5879 29.0713 42.4472C29.0465 42.4229 28.998 42.403 28.9633 42.403C28.9003 42.403 28.4456 42.2001 28.0478 41.9944C27.9304 41.9337 27.7327 41.8366 27.6087 41.7784C27.4845 41.7203 27.3831 41.6588 27.3831 41.6417C27.3831 41.6243 27.2922 41.5699 27.1813 41.5206C27.0702 41.4713 26.958 41.4137 26.932 41.3929C26.9058 41.3721 26.7454 41.261 26.5759 41.1459C25.9764 40.7393 25.7729 40.5963 25.7117 40.5381C25.6775 40.5059 25.5322 40.3843 25.3886 40.2683C24.9124 39.8831 23.9571 38.9539 23.6553 38.5821C23.5508 38.4533 23.428 38.3094 23.3821 38.2624C23.3365 38.2151 23.2992 38.1553 23.2992 38.1291C23.2992 38.1031 23.2812 38.0818 23.2596 38.0818C23.2376 38.0818 23.1362 37.9587 23.0339 37.8085C22.9316 37.6583 22.8319 37.5284 22.8122 37.5196C22.7929 37.511 22.7766 37.4754 22.7766 37.4407C22.7766 37.4056 22.7607 37.37 22.7407 37.3615C22.6909 37.3395 22.2068 36.6166 22.2068 36.5639C22.2068 36.5406 22.18 36.493 22.1472 36.4585C22.1142 36.424 21.9714 36.165 21.8298 35.8827C21.6882 35.6006 21.5548 35.359 21.5335 35.3459C21.5121 35.3325 21.4944 35.2897 21.4944 35.2504C21.4944 35.2111 21.4446 35.0681 21.3833 34.9327C21.2847 34.7147 21.224 34.5669 21.0611 34.1477C20.775 33.4126 20.5046 32.2994 20.3294 31.1358C20.2214 30.4194 20.2214 28.2682 20.3294 27.5519C20.4231 26.9291 20.5354 26.3307 20.5949 26.1358C20.6191 26.056 20.6596 25.8959 20.6847 25.7797C20.7753 25.3585 20.9967 24.6838 21.1924 24.2316C21.228 24.1493 21.2577 24.0533 21.2585 24.0179C21.2594 23.9826 21.2907 23.9134 21.3283 23.8638C21.3659 23.8142 21.3867 23.7578 21.3748 23.7387C21.3628 23.7193 21.385 23.6772 21.4238 23.6447C21.4628 23.6125 21.4944 23.5589 21.4944 23.5256C21.4944 23.4532 22.188 22.0933 22.2566 22.0306C22.2712 22.0175 22.3715 21.8679 22.4797 21.6983C22.588 21.5285 22.6991 21.3638 22.7268 21.3322C22.7541 21.3006 22.7766 21.2618 22.7766 21.2456C22.7766 21.2296 22.8034 21.1883 22.8362 21.1541C22.967 21.0162 23.0615 20.8877 23.0615 20.8481C23.0615 20.825 23.0969 20.7926 23.1396 20.7763C23.1826 20.7598 23.2063 20.7347 23.1923 20.7208C23.1781 20.7068 23.2126 20.6452 23.2684 20.584C23.4522 20.3831 23.6314 20.1671 23.6314 20.1466C23.6314 20.1355 23.685 20.0771 23.7502 20.0167C23.8155 19.956 23.869 19.8953 23.869 19.8814C23.869 19.8098 25.1652 18.5946 25.5786 18.2786C25.696 18.1889 25.8028 18.104 25.816 18.09C25.865 18.0379 26.5314 17.5669 26.5562 17.5669C26.5704 17.5669 26.6502 17.5187 26.7331 17.4597C26.9249 17.3241 27.0494 17.2466 27.1694 17.1873C27.2215 17.1617 27.3925 17.066 27.5492 16.9748C27.8381 16.8067 28.239 16.6067 28.7128 16.3941C28.9986 16.2659 29.0707 16.236 29.3539 16.1294C30.0338 15.8733 30.3267 15.7789 30.5771 15.7351C30.6754 15.718 30.7675 15.6849 30.7817 15.6618C30.7962 15.6388 30.8635 15.6197 30.9316 15.6197C30.9994 15.6197 31.1638 15.5895 31.2966 15.5521C32.3799 15.249 34.253 15.1253 35.646 15.2652Z" fill="#EB4434"/>
</g>
</g>
</svg>
